<?xml version="1.0" standalone="no"?>
<!DOCTYPE svg PUBLIC "-//W3C//DTD SVG 1.1//EN" "http://www.w3.org/Graphics/SVG/1.1/DTD/svg11.dtd" >
<svg xmlns="http://www.w3.org/2000/svg" xmlns:xlink="http://www.w3.org/1999/xlink" version="1.1">
<metadata>
Created by FontForge 20170731 at Sun Jul 31 02:34:35 2022
 By Aleksey,,,
</metadata>
<defs>
<font id="Powerr-ExtraBold" horiz-adv-x="211" >
  <font-face 
    font-family="Powerr ExtBd"
    font-weight="800"
    font-stretch="normal"
    units-per-em="1000"
    panose-1="2 0 0 0 0 0 0 0 0 0"
    ascent="750"
    descent="-250"
    x-height="540"
    cap-height="700"
    bbox="-20 -170 869 750"
    underline-thickness="50"
    underline-position="-175"
    unicode-range="U+000D-E827"
  />
<missing-glyph horiz-adv-x="250" 
 />
    <glyph glyph-name=".notdef" horiz-adv-x="250" 
 />
    <glyph glyph-name=".null" horiz-adv-x="0" 
 />
    <glyph glyph-name=".null" horiz-adv-x="0" 
 />
    <glyph glyph-name="uni000D" unicode="&#xd;" horiz-adv-x="250" 
 />
    <glyph glyph-name="space" unicode=" " horiz-adv-x="130" 
 />
    <glyph glyph-name="exclam" unicode="!" horiz-adv-x="216" 
d="M23 171h171v-171h-171v171zM23 701h171v-490h-171v490z" />
    <glyph glyph-name="quotedbl" unicode="&#x22;" horiz-adv-x="423" 
d="M20 700h171v-229h-171v229zM231 700h172v-229h-172v229z" />
    <glyph glyph-name="numbersign" unicode="#" horiz-adv-x="616" 
d="M353 240l83 230h-172l-83 -230h172zM20 200v40h118l83 230h-148v40h162l68 190h43l-68 -190h172l68 190h43l-68 -190h103v-40h-117l-83 -230h147v-40h-161l-72 -200h-43l72 200h-172l-72 -200h-43l72 200h-104z" />
    <glyph glyph-name="dollar" unicode="$" horiz-adv-x="428" 
d="M389 677v-156q-14 13 -31 23q-15 8 -36.5 15t-47.5 7q-35 0 -57.5 -14t-24.5 -37q-1 -2 -1 -6q0 -21 16 -38t40.5 -33.5t53 -35t53 -45t41.5 -62t18 -86.5q0 -14 -1 -26.5t-3 -25.5q-14 -74 -68 -117t-141 -48v-41h-40v40q-35 2 -62 9t-46 15q-21 9 -37 20v169
q18 -18 42 -33q20 -12 47 -22.5t60 -10.5q42 0 59.5 16.5t19.5 36.5q1 2 1 6q0 25 -16.5 44t-41 37t-53 37t-53.5 44t-42 58.5t-18 80.5q0 13 1 25t3 23q14 69 66.5 112t135.5 49v43h40v-42q29 -2 51.5 -7t38.5 -10q19 -6 33 -14z" />
    <glyph glyph-name="percent" unicode="%" horiz-adv-x="741" 
d="M473 700h43l-251 -700h-43zM19 531q0 35 13.5 65.5t36.5 53.5t54 36.5t66 13.5q36 0 67 -13.5t54 -36.5t36 -53.5t13 -65.5q0 -36 -13 -67t-36 -54.5t-54 -37t-67 -13.5q-35 0 -66 13.5t-54 37t-36.5 54.5t-13.5 67zM122 532q0 -32 19 -53.5t48 -21.5t48.5 21.5
t19.5 53.5q0 29 -19.5 50t-48.5 21t-48 -21t-19 -50zM382 171q0 35 13.5 66t36.5 54t54 36.5t66 13.5t66 -13.5t54 -36.5t36.5 -54t13.5 -66t-13.5 -66t-36.5 -54.5t-54 -37t-66 -13.5t-66 13.5t-54 37t-36.5 54.5t-13.5 66zM484 172q0 -32 19.5 -53t48.5 -21t48 21t19 53
q0 29 -19 50.5t-48 21.5t-48.5 -21.5t-19.5 -50.5z" />
    <glyph glyph-name="ampersand" unicode="&#x26;" horiz-adv-x="518" 
d="M488 468h-156q0 17 -4 33t-12.5 28.5t-22 20t-33.5 7.5q-33 0 -49.5 -20.5t-16.5 -49.5q0 -21 7.5 -34t20 -20t28.5 -9.5t32 -2.5h40v-107h-39q-19 0 -37.5 -4t-32 -13.5t-22 -25t-8.5 -39.5q0 -35 21 -57t57 -22q39 0 60 25.5t21 63.5h156q0 -51 -17 -94t-47 -75
t-72.5 -51t-93.5 -22v-49h-40v50q-44 4 -82 20.5t-66 43.5t-44 63t-16 79q0 24 6 47.5t20 44.5t37 39t58 31q-32 12 -53.5 28.5t-34 36t-18 40.5t-5.5 43q0 41 15 74.5t41.5 58.5t63 40.5t78.5 18.5v41h40v-41q49 -3 89.5 -22t69.5 -51t45 -75t16 -93z" />
    <glyph glyph-name="quotesingle" unicode="'" horiz-adv-x="207" 
d="M20 700h171v-229h-171v229z" />
    <glyph glyph-name="parenleft" unicode="(" horiz-adv-x="138" 
d="M81 0q-58 171 -60.5 346.5t60.5 353.5h37q-59 -171 -57 -346.5t57 -353.5h-37z" />
    <glyph glyph-name="parenright" unicode=")" horiz-adv-x="138" 
d="M20 0q55 178 57 353.5t-57 346.5h37q63 -178 60.5 -353.5t-60.5 -346.5h-37z" />
    <glyph glyph-name="asterisk" unicode="*" horiz-adv-x="440" 
d="M305 374l-85 136l-85 -136h-47l96 154l-144 32v41l160 -35v134h40v-135l160 36v-41l-144 -32l96 -154h-47z" />
    <glyph glyph-name="plus" unicode="+" horiz-adv-x="440" 
d="M240 170h-40v160h-160v40h160v160h40v-160h160v-40h-160v-160z" />
    <glyph glyph-name="comma" unicode="," 
d="M20 171h171v-181l-171 -80v261z" />
    <glyph glyph-name="hyphen" unicode="-" horiz-adv-x="440" 
d="M40 370h360v-40h-360v40z" />
    <glyph glyph-name="period" unicode="." 
d="M20 171h171v-171h-171v171z" />
    <glyph glyph-name="slash" unicode="/" horiz-adv-x="334" 
d="M271 700h43l-251 -700h-43z" />
    <glyph glyph-name="zero" unicode="0" horiz-adv-x="578" 
d="M21 353q0 83 19 149t54.5 112.5t85 71t110.5 24.5t110 -24.5t84 -70.5t54 -112.5t19 -149.5t-19 -149.5t-54 -112.5t-84 -70.5t-110 -24.5t-110.5 24.5t-85 71t-54.5 112.5t-19 149zM193 353q0 -190 96 -190q97 0 97 190t-97 190q-96 0 -96 -190z" />
    <glyph glyph-name="one" unicode="1" horiz-adv-x="307" 
d="M97 546h-96l91 154h176v-700h-171v546z" />
    <glyph glyph-name="two" unicode="2" horiz-adv-x="530" 
d="M33 468q0 52 14 96t42.5 76.5t70.5 51t97 18.5q45 0 87 -13t74.5 -38.5t52 -63.5t19.5 -88q0 -53 -21.5 -100.5t-57 -91t-81 -83.5t-92.5 -78h262v-154h-470l3 167q76 63 131.5 110.5t92 85.5t54 68.5t17.5 57.5q0 26 -16.5 47t-50.5 21q-36 0 -54 -25.5t-18 -63.5h-156z
" />
    <glyph glyph-name="three" unicode="3" horiz-adv-x="518" 
d="M30 468q0 53 17.5 97t49 76.5t75 50.5t96.5 18q46 0 86 -14t70 -39.5t47 -61t17 -78.5q0 -22 -5 -43.5t-17 -41t-32.5 -36.5t-51.5 -29q33 -13 55.5 -30.5t36 -38.5t19 -44.5t5.5 -46.5q0 -46 -18 -84.5t-49.5 -65.5t-74 -42t-91.5 -15q-54 0 -99 18t-77.5 50.5t-50.5 77
t-18 96.5h156q0 -38 21 -63.5t61 -25.5q38 0 58 22.5t20 54.5q0 33 -21 57.5t-60 24.5h-69v108h71q32 0 50.5 17.5t18.5 49.5q0 29 -17 49.5t-50 20.5q-36 0 -54.5 -25.5t-18.5 -63.5h-156z" />
    <glyph glyph-name="four" unicode="4" horiz-adv-x="539" 
d="M336 531l-143 -229h143v229zM336 0v147h-316v155l265 398h223v-700h-172z" />
    <glyph glyph-name="five" unicode="5" horiz-adv-x="517" 
d="M20 242h156q0 -38 21 -63.5t59 -25.5q39 0 58.5 25t19.5 60q0 88 -140 88h-156l64 374h365v-145h-232l-16 -90h45q65 0 109.5 -20t72 -52.5t39.5 -74t12 -84.5q0 -62 -21 -106t-55.5 -72.5t-79 -42t-90.5 -13.5q-57 0 -100 18.5t-72.5 51t-44 76.5t-14.5 96z" />
    <glyph glyph-name="six" unicode="6" horiz-adv-x="587" 
d="M213 338q-30 -32 -30 -78q0 -23 8.5 -43.5t23.5 -35.5t35 -24t43 -9t43.5 9t35.5 24t23.5 35.5t8.5 43.5t-8.5 43.5t-23.5 35.5t-35.5 24t-43.5 9q-21 0 -40 -7.5t-34 -20.5l-3 -7zM392 700l-82 -170q54 -3 100.5 -25.5t81.5 -59t55 -84t20 -101.5q0 -56 -21.5 -105
t-59 -86t-87 -58t-106.5 -21t-106.5 21t-86.5 58t-58.5 86t-21.5 105q0 33 7.5 63.5t21.5 57.5v1l171 318h172z" />
    <glyph glyph-name="seven" unicode="7" horiz-adv-x="509" 
d="M506 700l-268 -700h-174l202 545h-246v155h486z" />
    <glyph glyph-name="eight" unicode="8" horiz-adv-x="536" 
d="M183 234q0 -34 23 -57.5t58 -23.5t58 23.5t23 57.5t-23 57.5t-58 23.5t-58 -23.5t-23 -57.5zM203 483q0 -25 17.5 -43t43.5 -18t43.5 18t17.5 43t-17.5 43t-43.5 18t-43.5 -18t-17.5 -43zM31 518q0 40 18.5 75t50 61.5t74 41.5t90.5 15t90.5 -15t74 -41.5t50 -61.5
t18.5 -75q0 -45 -23 -83t-61 -64q48 -29 76 -74t28 -98q0 -44 -19.5 -83t-54 -68t-80.5 -45.5t-99 -16.5t-99 16.5t-80.5 45.5t-54 68t-19.5 83q0 53 28 98t76 74q-38 26 -61 64t-23 83z" />
    <glyph glyph-name="nine" unicode="9" horiz-adv-x="587" 
d="M373 361q14 15 22.5 35t8.5 43t-8.5 43.5t-23.5 35.5t-35.5 24t-43.5 9t-43 -9t-35 -24t-23.5 -35.5t-8.5 -43.5t8.5 -43.5t23.5 -35.5t35 -24t43 -9q22 0 41 7.5t33 20.5l4 7zM194 -1l83 170q-54 3 -100.5 25.5t-81.5 59t-55 84t-20 101.5q0 56 21.5 105t58.5 86
t86.5 58t106.5 21t106.5 -21t87 -58t59 -86t21.5 -105q0 -33 -8 -63.5t-22 -58.5h1l-171 -318h-173z" />
    <glyph glyph-name="colon" unicode=":" 
d="M20 171h171v-171h-171v171zM20 540h171v-171h-171v171z" />
    <glyph glyph-name="semicolon" unicode=";" 
d="M20 171h171v-181l-171 -80v261zM20 540h171v-171h-171v171z" />
    <glyph glyph-name="less" unicode="&#x3c;" horiz-adv-x="420" 
d="M40 375l360 170v-45l-312 -147l312 -148v-45l-360 170v45z" />
    <glyph glyph-name="equal" unicode="=" horiz-adv-x="440" 
d="M40 428h360v-40h-360v40zM40 308h360v-40h-360v40z" />
    <glyph glyph-name="greater" unicode="&#x3e;" horiz-adv-x="420" 
d="M332 353l-312 147v45l360 -170v-45l-360 -170v45z" />
    <glyph glyph-name="question" unicode="?" horiz-adv-x="300" 
d="M20 211q0 45 8.5 77.5t21 57.5t27 43.5t27 34.5t21 31.5t8.5 34.5q0 26 -20 44.5t-61 18.5q-13 0 -23 -2q-5 -1 -9 -2v146q7 3 17 6q9 2 23.5 4t34.5 2q57 0 96 -17t63 -44.5t34.5 -63t10.5 -73.5q0 -36 -8 -63.5t-20 -50t-26 -42.5t-26 -41t-20 -45t-8 -56h-171zM20 171
h171v-171h-171v171z" />
    <glyph glyph-name="at" unicode="@" horiz-adv-x="740" 
d="M182 347q0 -37 12.5 -69.5t35 -56.5t52.5 -37.5t64 -13.5q35 0 65 13.5t52.5 37.5t35 56.5t12.5 69.5q0 36 -12.5 67.5t-35 55t-52.5 37t-65 13.5q-34 0 -64 -13.5t-52.5 -37t-35 -55t-12.5 -67.5zM511 153v106q-21 -57 -66.5 -93t-106.5 -36q-41 0 -77 17t-62.5 46
t-41.5 68.5t-15 84.5q0 44 15 83t41.5 68t62.5 46t77 17q61 0 106.5 -35.5t66.5 -92.5v111h40v-350h92q21 36 33.5 76t12.5 81q0 66 -25 124.5t-68 101.5t-101.5 68t-124.5 25t-124.5 -25t-101.5 -68t-68 -101.5t-25 -124.5q0 -68 26.5 -127.5t72 -103t106.5 -67.5t130 -21
v-31h-16q-73 0 -136.5 27.5t-111 75t-75 111t-27.5 136.5t27.5 136.5t75 111t111 75t136.5 27.5t136.5 -27.5t111 -75t75 -111t27.5 -136.5q0 -55 -17.5 -105t-46.5 -92h-145z" />
    <glyph glyph-name="A" unicode="A" horiz-adv-x="702" 
d="M427 272l-76 228l-76 -228h152zM224 116l-39 -116h-175l232 700h218l232 -700h-175l-39 116h-254z" />
    <glyph glyph-name="B" unicode="B" horiz-adv-x="537" 
d="M211 291v-133h65q32 0 53 18t21 48q0 29 -20 48t-54 19h-65zM211 420h53q29 0 47 18t18 45q0 28 -18 43.5t-47 15.5h-53v-122zM40 0v700h248q46 0 84 -13.5t65.5 -37.5t43 -58.5t15.5 -76.5q0 -50 -21 -89.5t-59 -64.5q48 -25 74.5 -68.5t26.5 -99.5q0 -43 -16.5 -78.5
t-45.5 -60.5t-70 -39t-90 -14h-255z" />
    <glyph glyph-name="C" unicode="C" horiz-adv-x="502" 
d="M20 353q0 74 27 139t74 113.5t110 76.5t135 28q29 0 49.5 -4t32.5 -9q15 -6 24 -13l19 -162q-10 7 -23 13q-12 5 -29.5 9t-41.5 4q-43 0 -79.5 -15.5t-62.5 -41.5t-40.5 -61.5t-14.5 -76.5q0 -40 14.5 -75.5t40.5 -61.5t62.5 -41.5t79.5 -15.5q24 0 41.5 4t29.5 9
q13 6 23 13l-19 -163q-9 -7 -24 -13q-12 -5 -32.5 -9t-49.5 -4q-72 0 -135 28t-110 76.5t-74 113.5t-27 139z" />
    <glyph glyph-name="D" unicode="D" horiz-adv-x="581" 
d="M211 159q45 3 79.5 18.5t57.5 41t34.5 59t11.5 72.5t-11.5 72.5t-34.5 59t-57.5 41t-79.5 18.5v-382zM40 0v700h171q74 0 138 -27.5t111 -75t74 -111.5t27 -136t-27 -136t-74 -111.5t-111 -75t-138 -27.5h-171z" />
    <glyph glyph-name="E" unicode="E" horiz-adv-x="477" 
d="M40 0v700h381l36 -155h-246v-116h191v-155h-191v-118h246l-36 -156h-381z" />
    <glyph glyph-name="F" unicode="F" horiz-adv-x="477" 
d="M211 545v-116h191v-155h-191v-274h-171v700h381l36 -155h-246z" />
    <glyph glyph-name="G" unicode="G" horiz-adv-x="642" 
d="M20 353q0 74 28 139t77.5 113.5t116.5 76.5t145 28q58 0 102 -13.5t73 -29.5q35 -20 60 -44l-117 -130q-13 17 -32 30q-16 11 -41 20t-60 9q-42 0 -76.5 -16t-58.5 -43t-37 -63t-13 -77t13 -77t39 -63t64.5 -43t89.5 -16q14 0 27.5 1.5t27.5 3.5v195h171v-300
q-30 -16 -65 -29q-31 -11 -72 -20t-89 -9q-79 0 -147.5 28t-118.5 76.5t-78.5 113.5t-28.5 139z" />
    <glyph glyph-name="H" unicode="H" horiz-adv-x="611" 
d="M211 274v-274h-171v700h171v-271h189v271h171v-700h-171v274h-189z" />
    <glyph glyph-name="I" unicode="I" horiz-adv-x="251" 
d="M40 700h171v-700h-171v700z" />
    <glyph glyph-name="J" unicode="J" horiz-adv-x="357" 
d="M317 212q0 -213 -212 -213h-85v156h20q30 0 50.5 5.5t33 17.5t17.5 32.5t5 50.5v439h171v-488z" />
    <glyph glyph-name="K" unicode="K" horiz-adv-x="601" 
d="M395 0l-184 361v-361h-171v700h171v-316l174 316h196l-194 -329l204 -371h-196z" />
    <glyph glyph-name="L" unicode="L" horiz-adv-x="485" 
d="M40 0v700h171v-544h264l-37 -156h-398z" />
    <glyph glyph-name="M" unicode="M" horiz-adv-x="728" 
d="M364 95l-130 267l-43 -362h-176l84 700h140l125 -259l125 259h140l84 -700h-176l-43 363z" />
    <glyph glyph-name="N" unicode="N" horiz-adv-x="608" 
d="M568 700v-700h-85l-272 336v-336h-171v700h85l272 -330v330h171z" />
    <glyph glyph-name="O" unicode="O" horiz-adv-x="754" 
d="M20 353q0 74 28 139t76.5 113.5t113.5 76.5t139 28t139 -28t113.5 -76.5t76.5 -113.5t28 -139t-28 -139t-76.5 -113.5t-113.5 -76.5t-139 -28t-139 28t-113.5 76.5t-76.5 113.5t-28 139zM191 353q0 -39 14.5 -74t40 -60.5t59.5 -40.5t72 -15t72 15t59.5 40.5t40 60.5
t14.5 74t-14.5 74t-40 60.5t-59.5 40.5t-72 15t-72 -15t-59.5 -40.5t-40 -60.5t-14.5 -74z" />
    <glyph glyph-name="P" unicode="P" horiz-adv-x="557" 
d="M211 356h64q43 0 69 27t26 68q0 42 -26.5 66.5t-68.5 24.5h-64v-186zM40 0v700h249q55 0 100.5 -18t78.5 -50.5t51 -78.5t18 -102t-18 -102.5t-50.5 -80t-78.5 -52t-102 -18.5h-77v-198h-171z" />
    <glyph glyph-name="Q" unicode="Q" horiz-adv-x="754" 
d="M191 353q0 -39 14.5 -74t40 -60.5t59.5 -40.5t72 -15t72 15t59.5 40.5t40 60.5t14.5 74t-14.5 74t-40 60.5t-59.5 40.5t-72 15t-72 -15t-59.5 -40.5t-40 -60.5t-14.5 -74zM20 353q0 74 28 139t76.5 113.5t113.5 76.5t139 28t139 -28t113.5 -76.5t76.5 -113.5t28 -139
q0 -48 -12.5 -93t-35 -84t-54 -71.5t-69.5 -56.5l135 -187h-219l-97 135q-75 0 -140.5 27.5t-115 75.5t-78 113.5t-28.5 140.5z" />
    <glyph glyph-name="R" unicode="R" horiz-adv-x="558" 
d="M211 401h32q37 0 58.5 22t21.5 56t-22.5 53t-57.5 19h-32v-150zM352 0l-141 280v-280h-171v700h245q46 0 84.5 -14.5t66 -40.5t43 -63t15.5 -82q0 -66 -32 -115.5t-87 -72.5l173 -312h-196z" />
    <glyph glyph-name="S" unicode="S" horiz-adv-x="428" 
d="M389 677v-156q-14 13 -31 23q-15 8 -36.5 15t-47.5 7q-37 0 -60 -15t-23 -41q0 -22 16.5 -39t41 -33.5t53.5 -36t53.5 -46t41 -63t16.5 -88.5q0 -49 -16 -88.5t-46.5 -67t-74 -42.5t-97.5 -15q-40 0 -70.5 7t-51.5 15q-24 10 -42 22v169q18 -18 42 -33q20 -12 47.5 -22.5
t60.5 -10.5q44 0 61.5 18t17.5 41q0 25 -16.5 44.5t-41.5 37t-54 37t-54 45t-41.5 59.5t-16.5 82q0 45 16 83t46 65.5t73 42.5t96 15q32 0 57.5 -5t43.5 -10q21 -7 37 -16z" />
    <glyph glyph-name="T" unicode="T" horiz-adv-x="485" 
d="M11 545l28 155h408l27 -155h-146v-546h-171v546h-146z" />
    <glyph glyph-name="U" unicode="U" horiz-adv-x="626" 
d="M40 700h172v-415q0 -59 26.5 -90.5t75.5 -31.5t75 31.5t26 90.5v415h171v-443q0 -58 -20 -106t-56 -82.5t-86 -53.5t-110 -19q-61 0 -111 19t-86 53.5t-56 82.5t-20 106z" />
    <glyph glyph-name="V" unicode="V" horiz-adv-x="627" 
d="M617 700l-196 -700h-215l-196 700h177l126 -476l127 476h177z" />
    <glyph glyph-name="W" unicode="W" horiz-adv-x="761" 
d="M380 260l-116 -260h-129l-134 700h181l64 -369l134 288l134 -288l65 369h180l-134 -700h-128z" />
    <glyph glyph-name="X" unicode="X" horiz-adv-x="602" 
d="M592 0h-191l-100 179l-100 -179h-191l195 350l-195 350h191l100 -179l100 179h191l-196 -350z" />
    <glyph glyph-name="Y" unicode="Y" horiz-adv-x="628" 
d="M618 700l-310 -700h-178l105 244l-225 456h190l122 -254l109 254h187z" />
    <glyph glyph-name="Z" unicode="Z" horiz-adv-x="546" 
d="M0 0l279 545h-246l27 155h486l-286 -544h255l-28 -156h-487z" />
    <glyph glyph-name="bracketleft" unicode="[" horiz-adv-x="176" 
d="M156 0h-116v700h116v-40h-76v-620h76v-40z" />
    <glyph glyph-name="backslash" unicode="\" horiz-adv-x="334" 
d="M271 0l-251 700h43l251 -700h-43z" />
    <glyph glyph-name="bracketright" unicode="]" horiz-adv-x="176" 
d="M20 0v40h76v620h-76v40h116v-700h-116z" />
    <glyph glyph-name="asciicircum" unicode="^" horiz-adv-x="265" 
d="M155 700l90 -200h-44l-68 152l-69 -152h-44l90 200h45z" />
    <glyph glyph-name="underscore" unicode="_" horiz-adv-x="537" 
d="M40 0h457v-40h-457v40z" />
    <glyph glyph-name="a" unicode="a" horiz-adv-x="506" 
d="M178 173q0 -32 20.5 -52.5t51.5 -20.5t52 20.5t21 52.5q0 29 -21 50t-52 21t-51.5 -21t-20.5 -50zM15 169q0 36 14 68t39 56t59 38t74 14q39 0 69.5 -13t52.5 -35v15q0 50 -30.5 76t-96.5 26q-30 0 -55 -5t-42 -11q-21 -7 -37 -16v129q21 11 48 20q24 7 57.5 13t76.5 6
q121 0 181 -55.5t60 -162.5v-332h-162v44q-25 -25 -58 -39.5t-71 -14.5q-37 0 -69.5 14t-57 38t-38.5 57t-14 70z" />
    <glyph glyph-name="b" unicode="b" horiz-adv-x="603" 
d="M189 271q0 -27 9.5 -50t25.5 -40.5t38 -27t47 -9.5q26 0 47.5 9.5t38 27t25.5 40.5t9 50q0 26 -9 49t-25.5 40t-38 26.5t-47.5 9.5q-25 0 -47 -9.5t-38 -26.5t-25.5 -40t-9.5 -49zM193 497q28 25 65 39t80 14q55 0 101 -22t79 -60t51.5 -88.5t18.5 -108.5t-22 -109.5
t-60 -89.5t-88.5 -60t-108.5 -22t-108.5 22t-88.5 60t-60 89t-22 110v429h163v-203z" />
    <glyph glyph-name="c" unicode="c" horiz-adv-x="410" 
d="M15 271q0 58 22 108.5t59.5 88.5t87.5 60t106 22q26 0 44 -4t29 -9q13 -6 22 -13v-160q-7 9 -18 16q-9 6 -24 11t-36 5q-27 0 -50 -10t-39.5 -27t-26 -39.5t-9.5 -48.5q0 -27 9.5 -50t26.5 -40t41 -27t54 -10q19 0 32.5 3.5t22.5 8.5q10 5 17 11v-152q-9 -7 -22 -12
q-11 -5 -28.5 -9t-43.5 -4q-57 0 -107 22t-87.5 60t-59.5 89.5t-22 109.5z" />
    <glyph glyph-name="d" unicode="d" horiz-adv-x="600" 
d="M173 271q0 -27 9 -50t25 -40t37.5 -27t46.5 -10q24 0 45.5 10t37.5 27t25 40t9 50q0 26 -9 48.5t-25 39.5t-37.5 27t-45.5 10q-25 0 -46.5 -10t-37.5 -27t-25 -39.5t-9 -48.5zM408 0v55q-27 -31 -64 -48t-84 -17q-53 0 -98 22t-77.5 60.5t-51 89.5t-18.5 109
q0 57 18.5 108t51 89t77 60t97.5 22q48 0 85 -17.5t64 -48.5v216h162v-700h-162z" />
    <glyph glyph-name="e" unicode="e" horiz-adv-x="540" 
d="M378 364q-1 2 -7 8.5t-17.5 14t-27.5 13.5t-36 6q-24 0 -45 -9.5t-37 -26.5t-25 -41.5t-9 -53.5q0 -11 1 -16zM15 268q0 58 21.5 109.5t58.5 90t87.5 61t107.5 22.5q54 0 99.5 -19t78.5 -49t52 -67t20 -72l-327 -168q42 -37 105 -37q38 0 70.5 12.5t56.5 26.5
q28 17 51 39v-155q-19 -20 -47 -36q-23 -14 -57 -25.5t-80 -11.5q-58 0 -111.5 21t-94.5 58t-66 88t-25 112z" />
    <glyph glyph-name="f" unicode="f" horiz-adv-x="312" 
d="M296 405h-77v-405h-162v405h-42v136h42v32q0 33 11 56.5t30.5 39.5t46.5 23.5t58 7.5q22 0 39 -3t29 -6q15 -5 26 -10v-103q-3 3 -8 5q-10 4 -24 4q-23 0 -33.5 -13t-12.5 -33h77v-136z" />
    <glyph glyph-name="g" unicode="g" horiz-adv-x="571" 
d="M179 304q0 -41 28 -70t72 -29q21 0 39.5 8t32 21.5t21 31.5t7.5 38q0 21 -7.5 39.5t-21 32t-32 21.5t-39.5 8q-22 0 -40 -8t-31.5 -21.5t-21 -32t-7.5 -39.5zM541 93q0 -56 -18 -104.5t-54 -83.5t-91 -55t-130 -20q-51 0 -87 8t-60 17q-27 12 -46 26v148q20 -16 47 -29
q23 -11 56.5 -20t76.5 -9q75 0 109.5 32.5t34.5 96.5v19q-25 -28 -59.5 -43.5t-79.5 -15.5q-49 0 -90.5 19.5t-71.5 52.5t-46.5 77.5t-16.5 94.5q0 51 16.5 96t46.5 78t71.5 52.5t90.5 19.5q45 0 79.5 -15.5t59.5 -43.5v49h162v-447z" />
    <glyph glyph-name="h" unicode="h" horiz-adv-x="552" 
d="M193 700v-224q26 35 64.5 54.5t86.5 19.5q42 0 75.5 -16t56 -43t34.5 -64t12 -79v-348h-163v301q0 47 -23.5 71t-56.5 24q-37 0 -61.5 -26t-24.5 -67v-303h-163v700h163z" />
    <glyph glyph-name="i" unicode="i" horiz-adv-x="214" 
d="M26 540h162v-540h-162v540zM26 700h162v-112h-162v112z" />
    <glyph glyph-name="j" unicode="j" horiz-adv-x="223" 
d="M30 700h163v-112h-163v112zM193 -10q0 -151 -162 -151l-51 147q27 0 38.5 10t11.5 34v510h163v-550z" />
    <glyph glyph-name="k" unicode="k" horiz-adv-x="520" 
d="M333 0l-140 276v-276h-163v700h163v-371l133 211h185l-163 -237l170 -303h-185z" />
    <glyph glyph-name="l" unicode="l" horiz-adv-x="223" 
d="M30 700h163v-700h-163v700z" />
    <glyph glyph-name="m" unicode="m" horiz-adv-x="818" 
d="M788 -1h-162v316q0 39 -19 60t-47 21q-30 0 -50 -23t-20 -58v-315h-163v315q0 39 -18 60t-47 21q-30 0 -49.5 -22.5t-19.5 -57.5v-316h-163v540h163v-64q24 34 59 54t80 20q51 0 85.5 -25t53.5 -66q24 41 63.5 66t90.5 25q39 0 69.5 -14.5t51 -40t31.5 -60t11 -73.5v-363
z" />
    <glyph glyph-name="n" unicode="n" horiz-adv-x="552" 
d="M193 540v-64q26 35 64.5 54.5t86.5 19.5q42 0 75.5 -16t56 -43t34.5 -63.5t12 -78.5v-349h-163v302q0 47 -23.5 70.5t-56.5 23.5q-37 0 -61.5 -26t-24.5 -67v-303h-163v540h163z" />
    <glyph glyph-name="o" unicode="o" horiz-adv-x="590" 
d="M15 271q0 58 22 108.5t60 88.5t89 60t109 22t109 -22t89 -60t60 -88.5t22 -108.5t-22 -109.5t-60 -89.5t-89 -60t-109 -22t-109 22t-89 60t-60 89.5t-22 109.5zM173 271q0 -27 9.5 -50t26 -40.5t39 -27t47.5 -9.5q26 0 48 9.5t38.5 27t26 40.5t9.5 50q0 26 -9.5 49
t-26 40t-38.5 26.5t-48 9.5q-25 0 -47.5 -9.5t-39 -26.5t-26 -40t-9.5 -49z" />
    <glyph glyph-name="p" unicode="p" horiz-adv-x="602" 
d="M428 269q0 27 -9 50t-24.5 40t-37 27t-46.5 10q-24 0 -45.5 -10t-37.5 -27t-25 -40t-9 -50q0 -26 9 -48.5t25 -39.5t37.5 -27t45.5 -10q25 0 46.5 10t37 27t24.5 39.5t9 48.5zM194 540v-55q27 31 63.5 48t84.5 17q53 0 98 -22t77.5 -60.5t51 -89.5t18.5 -109
q0 -57 -18.5 -108t-51 -89t-77.5 -60t-98 -22q-47 0 -84 17.5t-64 48.5v-216h-163v700h163z" />
    <glyph glyph-name="q" unicode="q" horiz-adv-x="602" 
d="M173 269q0 -26 9 -48.5t25 -39.5t37.5 -27t46.5 -10q24 0 45.5 10t37.5 27t25 39.5t9 48.5q0 27 -9 50t-25 40t-37.5 27t-45.5 10q-25 0 -46.5 -10t-37.5 -27t-25 -40t-9 -50zM408 540h162v-700h-162v216q-27 -31 -64 -48.5t-85 -17.5q-53 0 -97.5 22t-77 60t-51 89
t-18.5 108q0 58 18.5 109t51 89.5t77.5 60.5t98 22q47 0 84 -17t64 -48v55z" />
    <glyph glyph-name="r" unicode="r" horiz-adv-x="334" 
d="M194 540v-54q26 32 59.5 48t66.5 16v-154q-62 0 -94 -28t-32 -94v-274h-163v540h163z" />
    <glyph glyph-name="s" unicode="s" horiz-adv-x="398" 
d="M352 508v-129q-13 10 -30 18q-14 7 -35 12.5t-48 5.5q-36 0 -50.5 -10t-14.5 -24q0 -15 15.5 -26.5t39.5 -22.5t51 -24t51 -32.5t39.5 -48t15.5 -69.5q0 -37 -14.5 -68t-41 -53t-64.5 -34t-86 -12q-38 0 -67 7t-49 15q-23 10 -39 22v133q18 -13 40 -24q19 -9 43.5 -16.5
t51.5 -7.5q10 0 21.5 1.5t21.5 6t16.5 12.5t6.5 20q0 19 -16 32t-39.5 24.5t-51 24t-51 30.5t-39.5 45t-16 66q0 36 14.5 66.5t41 52.5t63 34.5t81.5 12.5q34 0 60 -6t43 -14q21 -9 36 -20z" />
    <glyph glyph-name="t" unicode="t" horiz-adv-x="306" 
d="M281 405h-59v-190q0 -21 3 -34t10.5 -20.5t21 -10.5t34.5 -3v-147h-78q-75 0 -114.5 37t-39.5 112v256h-44v136h44v84l163 46v-130h59v-136z" />
    <glyph glyph-name="u" unicode="u" horiz-adv-x="552" 
d="M359 0v64q-27 -35 -65.5 -54.5t-86.5 -19.5q-42 0 -75 16t-55.5 43t-34.5 63.5t-12 78.5v349h163v-301q0 -48 23.5 -71.5t56.5 -23.5q37 0 61.5 26t24.5 68v302h163v-540h-163z" />
    <glyph glyph-name="v" unicode="v" horiz-adv-x="549" 
d="M370 0h-190l-180 540h167l108 -323l107 323h167z" />
    <glyph glyph-name="w" unicode="w" horiz-adv-x="782" 
d="M465 0l-75 274l-74 -274h-159l-147 540h168l68 -285l77 285h135l78 -286l68 286h168l-147 -540h-160z" />
    <glyph glyph-name="x" unicode="x" horiz-adv-x="516" 
d="M191 0h-182l163 271l-163 269h182l63 -120l63 120h182l-162 -269l166 -271h-182l-66 122z" />
    <glyph glyph-name="y" unicode="y" horiz-adv-x="568" 
d="M311 -160h-164l67 190l-205 510h169l118 -282l100 282h164z" />
    <glyph glyph-name="z" unicode="z" horiz-adv-x="457" 
d="M452 0h-444l200 386h-179v154h441l-200 -386h182v-154z" />
    <glyph glyph-name="braceleft" unicode="{" horiz-adv-x="196" 
d="M60 284q0 24 -9.5 43.5t-30.5 33.5q18 14 29 30.5t11 34.5v230q0 44 44 44h72v-40h-50q-26 0 -26 -26v-208q0 -18 -8 -35t-24 -30q16 -11 24 -33.5t8 -43.5v-218q0 -26 26 -26h50v-40h-72q-44 0 -44 44v240z" />
    <glyph glyph-name="bar" unicode="|" horiz-adv-x="120" 
d="M40 700h40v-700h-40v700z" />
    <glyph glyph-name="braceright" unicode="}" horiz-adv-x="196" 
d="M136 44q0 -44 -44 -44h-72v40h50q26 0 26 26v218q0 21 8 43.5t24 33.5q-16 13 -24 30t-8 35v208q0 26 -26 26h-50v40h72q44 0 44 -44v-230q0 -18 11 -34.5t29 -30.5q-21 -14 -30.5 -33.5t-9.5 -43.5v-240z" />
    <glyph glyph-name="tilde" unicode="&#x2dc;" horiz-adv-x="400" 
d="M20 370q26 17 48 24t42 7q26 0 47.5 -9t43 -20t44 -20t49.5 -9q19 0 40 6.5t46 20.5v-40q-27 -14 -49.5 -20.5t-41.5 -6.5q-27 0 -49.5 9t-43.5 20t-42 20t-46 9q-19 0 -40.5 -7t-47.5 -24v40z" />
    <glyph glyph-name="quoteleft" unicode="&#x2018;" 
d="M191 421h-171v196l171 83v-279z" />
    <glyph glyph-name="quoteright" unicode="&#x2019;" 
d="M20 700h171v-196l-171 -83v279z" />
    <glyph glyph-name="quotedblleft" unicode="&#x201c;" horiz-adv-x="423" 
d="M191 421h-171v198l171 81v-279zM403 421h-172v198l172 81v-279z" />
    <glyph glyph-name="quotedblright" unicode="&#x201d;" horiz-adv-x="423" 
d="M231 700h172v-197l-172 -82v279zM20 700h171v-197l-171 -82v279z" />
    <glyph glyph-name="Euro" unicode="&#x20ac;" horiz-adv-x="539" 
d="M20 375v40h42q11 63 42.5 117t79 93.5t107.5 62t128 22.5q24 0 44.5 -2.5t34.5 -5.5q17 -4 31 -8v-172q-10 7 -23 13q-12 5 -29.5 9t-41.5 4q-72 0 -121 -37.5t-67 -95.5h231v-40h-239q0 -5 -0.5 -11t-0.5 -11q0 -7 0.5 -13.5t1.5 -13.5h238v-40h-229q19 -57 67.5 -92
t118.5 -35q24 0 41.5 4t29.5 9q13 5 23 12v-170q-14 -5 -31 -9q-15 -3 -36 -6t-47 -3q-66 0 -125 22t-105.5 61t-78 92t-43.5 115h-43v40h38q-1 7 -1 13.5v13.5v11t1 11h-38z" />
    <glyph glyph-name="uniE800" unicode="&#xe800;" horiz-adv-x="502" 
d="M20 353q0 74 28.5 139t77 113.5t114 76.5t140.5 28q25 0 45 -2.5t35 -5.5q17 -4 31 -9v-171q-10 7 -23 13q-12 5 -29.5 9t-41.5 4q-43 0 -79.5 -15.5t-62.5 -41.5t-40.5 -61.5t-14.5 -76.5q0 -40 14.5 -75.5t40.5 -61.5t62.5 -41.5t79.5 -15.5q24 0 41.5 4t29.5 9
q13 6 23 13v-170q-14 -5 -31 -9q-15 -4 -36 -7t-47 -3q-73 0 -138 28t-114 76.5t-77 113.5t-28 139z" />
    <glyph glyph-name="uniE801" unicode="&#xe801;" horiz-adv-x="460" 
d="M40 0v700h400v-155h-229v-116h191v-155h-191v-118h229v-156h-400z" />
    <glyph glyph-name="uniE802" unicode="&#xe802;" horiz-adv-x="460" 
d="M211 274v-274h-171v700h400v-155h-229v-116h191v-155h-191z" />
    <glyph glyph-name="uniE803" unicode="&#xe803;" horiz-adv-x="642" 
d="M20 353q0 74 28 139t77.5 113.5t116.5 76.5t145 28q58 0 102 -13.5t73 -29.5q35 -20 60 -44l-117 -130q-13 17 -32 30q-16 11 -41 20t-60 9q-42 0 -76.5 -16t-58.5 -43t-37 -63t-13 -77t13 -77t39 -63t64.5 -43t89.5 -16q14 0 27.5 1.5t27.5 3.5v105h-136l39 155h268
v-365q-30 -16 -65 -29q-31 -11 -72 -20t-89 -9q-79 0 -147.5 28t-118.5 76.5t-78.5 113.5t-28.5 139z" />
    <glyph glyph-name="uniE804" unicode="&#xe804;" horiz-adv-x="485" 
d="M40 0v700h171v-544h255v-156h-426z" />
    <glyph glyph-name="uniE805" unicode="&#xe805;" horiz-adv-x="712" 
d="M355 138l-143 224v-362h-172v700h139l176 -251l178 251h139v-700h-172v363z" />
    <glyph glyph-name="uniE806" unicode="&#xe806;" horiz-adv-x="668" 
d="M602 700v-700h-171l-220 383v-383h-171v700h171l220 -377v377h171z" />
    <glyph glyph-name="uniE807" unicode="&#xe807;" horiz-adv-x="485" 
d="M20 545v155h445v-155h-137v-546h-171v546h-137z" />
    <glyph glyph-name="uniE809" unicode="&#xe809;" horiz-adv-x="622" 
d="M227 0v289l-217 411h177l124 -250l123 250h178l-214 -414v-286h-171z" />
    <glyph glyph-name="uniE80A" unicode="&#xe80a;" horiz-adv-x="546" 
d="M0 0l279 545h-236v155h503l-286 -544h237v-156h-497z" />
    <glyph glyph-name="uniE80B" unicode="&#xe80b;" horiz-adv-x="600" 
d="M427 271q0 26 -9 48.5t-25 39.5t-37.5 27t-45.5 10q-25 0 -46 -10t-37 -27t-25 -39.5t-9 -48.5q0 -27 9 -50t25 -40t37 -27t46 -10q24 0 45.5 10t37.5 27t25 40t9 50zM193 0h-163v700h163v-216q27 31 63.5 48.5t84.5 17.5q53 0 98 -22t77.5 -60t50.5 -89t18 -108
q0 -58 -18 -109t-50.5 -89.5t-77.5 -60.5t-98 -22q-48 0 -85 17t-63 48v-55z" />
    <glyph glyph-name="uniE80C" unicode="&#xe80c;" horiz-adv-x="540" 
d="M377 328q0 5 -4.5 18t-16 26.5t-30 23.5t-45.5 10q-38 0 -66.5 -21t-41.5 -57h204zM15 268q0 58 21 109.5t58 90t87 61t107 22.5q53 0 97.5 -19t76.5 -53.5t50 -81t18 -102.5v-59h-359q14 -48 53.5 -72.5t84.5 -24.5q27 1 49 8.5t38 16.5q18 11 32 24l92 -100
q-26 -28 -60 -49q-29 -19 -69 -34.5t-90 -15.5q-54 0 -105 21t-91.5 58t-65 88t-24.5 112z" />
    <glyph glyph-name="uniE80D" unicode="&#xe80d;" horiz-adv-x="502" 
d="M20 353q0 74 28.5 139t77 113.5t114 76.5t139.5 28q25 0 45.5 -2.5t35.5 -5.5q17 -4 31 -9v-171q-10 7 -23 13q-12 5 -30 9t-42 4q-66 0 -113.5 -33.5t-68.5 -87.5h243v-155h-240q22 -51 69 -82t110 -31q24 0 42 4t30 9q13 6 23 13v-170q-14 -5 -31 -9q-15 -4 -36 -7
t-47 -3q-73 0 -138 28t-114 76.5t-77 113.5t-28 139z" />
    <glyph glyph-name="uniE80E" unicode="&#xe80e;" horiz-adv-x="306" 
d="M289 405h-72v-443q0 -62 -40.5 -92t-101.5 -30q-21 0 -38.5 3t-29.5 6q-14 5 -25 10v103q3 -3 7 -5q10 -4 23 -4q25 0 33.5 15t8.5 35v402h-39v136h39v35q0 63 40.5 93.5t103.5 30.5q22 0 39 -3t29 -6q14 -5 25 -10v-102q-3 2 -8 4q-4 2 -9.5 3t-13.5 1q-24 0 -33 -13.5
t-10 -32.5h72v-136z" />
    <glyph glyph-name="uniE80F" unicode="&#xe80f;" horiz-adv-x="519" 
d="M412 -160l-219 436v-276h-163v700h163v-371l133 211h185l-163 -237l249 -463h-185z" />
    <glyph glyph-name="uniE810" unicode="&#xe810;" horiz-adv-x="478" 
d="M357 508v-129q-13 10 -30 18q-14 7 -34 12.5t-46 5.5q-39 0 -53.5 -13.5t-14.5 -30.5q0 -24 21 -40t52.5 -30.5t68 -32t68 -43.5t52.5 -64.5t21 -96.5q0 -50 -17 -91t-49 -70.5t-77.5 -46t-102.5 -16.5q-47 0 -82 9.5t-58 20.5q-28 14 -47 31v133q20 -18 45 -31
q21 -12 50 -22t64 -9q56 0 84.5 26.5t28.5 63.5q0 34 -21 56t-52.5 40.5t-68.5 35t-68.5 39t-52.5 53.5t-21 77q0 37 14.5 70.5t41.5 59t65 40.5t85 15q32 0 57 -6t42 -14q20 -9 35 -20z" />
    <glyph glyph-name="uniE811" unicode="&#xe811;" horiz-adv-x="600" 
d="M173 271q0 -27 9 -50t25 -40t37.5 -27t46.5 -10q24 0 45.5 10t37.5 27t25 40t9 50q0 26 -9 48.5t-25 39.5t-37.5 27t-45.5 10q-25 0 -46.5 -10t-37.5 -27t-25 -39.5t-9 -48.5zM408 0v55q-27 -31 -64 -48t-84 -17q-53 0 -98 22t-77.5 60.5t-51 89.5t-18.5 109
q0 57 18.5 108t51 89t77 60t97.5 22q48 0 85 -17.5t64 -48.5v56h162v-540h-162z" />
    <glyph glyph-name="uniE812" unicode="&#xe812;" horiz-adv-x="299" 
d="M284 405h-60v-405h-162v405h-47v136h47v85l162 45v-130h60v-136z" />
    <glyph glyph-name="uniE813" unicode="&#xe813;" horiz-adv-x="458" 
d="M673 -160q-89 2 -149.5 15t-105 30.5t-80 37.5t-74.5 37.5t-88 28.5t-121 11h-47l201 386h-180v154h442l-214 -410q47 -17 88 -41t87.5 -45.5t104 -36.5t136.5 -15v-152z" />
    <glyph glyph-name="uniE814" unicode="&#xe814;" horiz-adv-x="389" 
d="M40 0v700h171v-544h166v-156h-337z" />
    <glyph glyph-name="uniE815" unicode="&#xe815;" horiz-adv-x="626" 
d="M212 307h203v108q0 59 -26 90.5t-75 31.5q-5 0 -8 -1q-45 -2 -69.5 -33t-24.5 -88v-108zM41 443q0 58 20 106t56 82.5t86 53.5t111 19q62 0 112 -19t85.5 -54.5t55 -85t19.5 -109.5v-436h-171v151h-203v-151h-172z" />
    <glyph glyph-name="uniE816" unicode="&#xe816;" horiz-adv-x="909" 
d="M869 0h-172v447q0 44 -19.5 67t-55.5 23t-55.5 -23t-19.5 -67v-447h-184v447q0 44 -20 67t-56 23t-55.5 -23t-19.5 -67v-447h-172l1 474q0 51 16 93.5t45 73t69.5 47t89.5 16.5q66 0 116.5 -30t76.5 -84q27 54 77.5 84t116.5 30q49 0 89.5 -16.5t69.5 -47t45 -73
t16 -93.5z" />
    <glyph glyph-name="uniE817" unicode="&#xe817;" horiz-adv-x="626" 
d="M41 443q0 58 20 106t56 82.5t86 53.5t111 19q60 0 110 -19t86 -53.5t56 -82.5t20 -106v-443h-171v415q0 59 -26 90.5t-75 31.5t-75.5 -31.5t-26.5 -90.5v-415h-172z" />
    <glyph glyph-name="uniE818" unicode="&#xe818;" horiz-adv-x="909" 
d="M868 220q0 -51 -16 -93t-45 -72.5t-69.5 -47t-89.5 -16.5q-66 0 -116.5 30t-77.5 84q-26 -54 -76.5 -84t-116.5 -30q-49 0 -89.5 16.5t-69.5 47t-45 72.5t-16 93l-1 475h172v-447q0 -44 19.5 -67t55.5 -23t56 23t20 67v447h184v-447q0 -44 19.5 -67t55.5 -23t55.5 23
t19.5 67v447h172z" />
    <glyph glyph-name="uniE819" unicode="&#xe819;" horiz-adv-x="603" 
d="M414 269q0 27 -9.5 50t-25.5 40.5t-38 27t-48 9.5q-25 0 -47 -9.5t-38 -27t-25.5 -40.5t-9.5 -50q0 -26 9.5 -49t25.5 -40t38 -26.5t47 -9.5q26 0 48 9.5t38 26.5t25.5 40t9.5 49zM410 43q-29 -25 -65.5 -39t-80.5 -14q-54 0 -100 22t-79 60t-51.5 88.5t-18.5 108.5
q0 59 22 110t60 89t88.5 60t108.5 22t108.5 -22t88.5 -60t60 -89t22 -110v-271h-163v45z" />
    <glyph glyph-name="uniE81A" unicode="&#xe81a;" horiz-adv-x="603" 
d="M414 271q0 26 -9.5 49t-25.5 40t-38 26.5t-48 9.5q-25 0 -47 -9.5t-38 -26.5t-25.5 -40t-9.5 -49q0 -27 9.5 -50t25.5 -40.5t38 -27t47 -9.5q26 0 48 9.5t38 27t25.5 40.5t9.5 50zM573 271q0 -59 -22 -110t-60 -89t-88.5 -60t-108.5 -22t-108.5 22t-88.5 60t-60 89.5
t-22 109.5t18.5 108.5t51.5 88.5t79 60t100 22q44 0 80.5 -14t65.5 -39v203h163v-429z" />
    <glyph glyph-name="uniE81B" unicode="&#xe81b;" horiz-adv-x="573" 
d="M380 299q0 42 -29 69.5t-72 27.5t-72 -27.5t-29 -69.5q0 -19 8 -36.5t21.5 -30t32 -20t39.5 -7.5t39.5 7.5t32 20t21.5 30t8 36.5zM543 290v-197q0 -56 -18 -104.5t-54 -83.5t-91.5 -55t-130.5 -20q-50 0 -86 7.5t-59 16.5q-28 11 -46 25v147q20 -15 48 -28
q23 -10 56 -18.5t75 -8.5q72 0 107.5 31.5t35.5 98.5v8q-26 -23 -60.5 -36t-75.5 -13q-51 0 -93 19.5t-72 52.5t-47 77.5t-17 94.5q0 51 20.5 96t55.5 78t82 52.5t101 19.5q56 0 104.5 -21t85 -56.5t57.5 -82.5t21 -100h1z" />
    <glyph glyph-name="uniE81C" unicode="&#xe81c;" horiz-adv-x="866" 
d="M828 0h-164v302q0 40 -19.5 62t-54.5 22t-54.5 -22t-19.5 -62v-302h-167v302q0 40 -19.5 62t-53.5 22q-35 0 -54.5 -22t-19.5 -62v-302h-163l1 322q0 50 15 90.5t43 70t66.5 45.5t84.5 16q63 0 110.5 -29t73.5 -80q26 51 73.5 80t110.5 29q47 0 85.5 -16t66 -45.5t43 -70
t15.5 -90.5z" />
    <glyph glyph-name="uniE81D" unicode="&#xe81d;" horiz-adv-x="597" 
d="M41 302q0 53 19 97t53 75.5t81.5 49t104.5 17.5t104.5 -17.5t81.5 -49t53 -75.5t19 -97v-306h-162v283q0 50 -25 76.5t-71 26.5q-45 0 -70.5 -26.5t-25.5 -76.5v-283h-163z" />
    <glyph glyph-name="uniE81E" unicode="&#xe81e;" horiz-adv-x="603" 
d="M189 269q0 -26 9.5 -49t25.5 -40t38 -26.5t47 -9.5q26 0 47.5 9.5t38 26.5t25.5 40t9 49q0 27 -9 50t-25.5 40.5t-38 27t-47.5 9.5q-25 0 -47 -9.5t-38 -27t-25.5 -40.5t-9.5 -50zM30 269q0 59 22 110t60 89t88.5 60t108.5 22t108.5 -22t88.5 -60t60 -89t22 -110
q0 -58 -18.5 -108.5t-51.5 -88.5t-79 -60t-101 -22q-43 0 -80 14t-65 39v-203h-163v429z" />
    <glyph glyph-name="uniE81F" unicode="&#xe81f;" horiz-adv-x="603" 
d="M414 269q0 27 -9.5 50t-25.5 40.5t-38 27t-48 9.5q-25 0 -47 -9.5t-38 -27t-25.5 -40.5t-9.5 -50q0 -26 9.5 -49t25.5 -40t38 -26.5t47 -9.5q26 0 48 9.5t38 26.5t25.5 40t9.5 49zM410 43q-29 -25 -65.5 -39t-80.5 -14q-54 0 -100 22t-79 60t-51.5 88.5t-18.5 108.5
q0 59 22 110t60 89t88.5 60t108.5 22t108.5 -22t88.5 -60t60 -89t22 -110v-429h-163v203z" />
    <glyph glyph-name="uniE820" unicode="&#xe820;" horiz-adv-x="597" 
d="M40 540h163v-283q0 -50 25.5 -76.5t70.5 -26.5q46 0 71 26.5t25 76.5v283h162v-306q0 -53 -19 -96.5t-53 -75t-81.5 -49t-104.5 -17.5t-104.5 17.5t-81.5 49t-53 75t-19 96.5z" />
    <glyph glyph-name="uniE821" unicode="&#xe821;" horiz-adv-x="866" 
d="M827 218q0 -49 -15.5 -90t-43 -70t-66 -45.5t-85.5 -16.5q-63 0 -110.5 29t-73.5 80q-26 -51 -73.5 -80t-110.5 -29q-46 0 -84.5 16.5t-66.5 45.5t-43 70t-15 90l-1 322h163v-302q0 -40 19.5 -62t54.5 -22q34 0 53.5 22t19.5 62v302h167v-302q0 -40 19.5 -62t54.5 -22
t54.5 22t19.5 62v302h164z" />
    <glyph glyph-name="uniE822" unicode="&#xe822;" horiz-adv-x="558" 
d="M30 540h163v-245q0 -40 23.5 -60.5t56.5 -20.5q32 0 57.5 21t25.5 65v241h163v-454q0 -55 -17.5 -102t-53.5 -81.5t-90.5 -54t-128.5 -19.5q-49 0 -85 7.5t-59 16.5q-27 11 -45 25v147q20 -15 46 -28q23 -10 56 -18.5t75 -8.5q72 0 105.5 30t33.5 94v39
q-27 -33 -66.5 -53.5t-88.5 -20.5q-40 0 -72 14t-54 38.5t-33.5 57.5t-11.5 70v300z" />
    <glyph glyph-name="uniE823" unicode="&#xe823;" horiz-adv-x="581" 
d="M370 357v177q-66 -17 -104.5 -64t-49.5 -113h154zM40 0v333q0 79 33 146t90.5 116t136.5 77t172 28h69v-700h-171v201h-159v-201h-171z" />
    <glyph glyph-name="uniE824" unicode="&#xe824;" horiz-adv-x="733" 
d="M367 244q-16 63 -42 108.5t-52 75.5q-29 34 -62 58v-486h-171v700h54q65 0 111.5 -19t78.5 -46t52 -55.5t31 -47.5q11 19 30.5 47.5t51.5 55.5t78.5 46t111.5 19h54v-700h-171v486q-32 -24 -61 -58q-26 -30 -51.5 -75.5t-42.5 -108.5z" />
    <glyph glyph-name="uniE825" unicode="&#xe825;" horiz-adv-x="596" 
d="M541 0h-171v295q0 95 -44.5 148.5t-114.5 64.5v-508h-171v700h108q66 0 122.5 -27t99.5 -72v99h171v-700z" />
    <glyph glyph-name="uniE826" unicode="&#xe826;" horiz-adv-x="581" 
d="M541 700v-333q0 -79 -32.5 -146t-90.5 -116t-137 -77t-171 -28h-70v700h171v-534q40 10 69.5 32t49.5 52.5t30 69t10 81.5v299h171z" />
    <glyph glyph-name="uniE827" unicode="&#xe827;" horiz-adv-x="747" 
d="M367 168q-11 -19 -31 -47.5t-52 -55.5t-78.5 -46t-111.5 -19h-54v700h171v-486q33 24 62 59q26 30 52 75t42 108q17 -63 42.5 -108.5t51.5 -75.5q29 -34 61 -58v486h171v-700h-54q-65 0 -111.5 19t-78.5 46t-51.5 55.5t-30.5 47.5z" />
    <glyph glyph-name="T.flatleft" horiz-adv-x="484" 
d="M10 545l28 155h426v-155h-136v-546h-172v546h-146z" />
    <glyph glyph-name="T.flatright" horiz-adv-x="484" 
d="M20 545v155h427l27 -155h-145v-546h-171v546h-138z" />
    </font>
</defs>
</svg>
