<?xml version="1.0" standalone="no"?>
<!DOCTYPE svg PUBLIC "-//W3C//DTD SVG 1.1//EN" "http://www.w3.org/Graphics/SVG/1.1/DTD/svg11.dtd" >
<svg xmlns="http://www.w3.org/2000/svg" xmlns:xlink="http://www.w3.org/1999/xlink" version="1.1">
<metadata>
Created by FontForge 20170731 at Sun Jul 31 02:34:34 2022
 By Aleksey,,,
</metadata>
<defs>
<font id="Powerr-Thin" horiz-adv-x="80" >
  <font-face 
    font-family="Powerr Thin"
    font-weight="100"
    font-stretch="normal"
    units-per-em="1000"
    panose-1="2 0 0 0 0 0 0 0 0 0"
    ascent="750"
    descent="-250"
    x-height="540"
    cap-height="700"
    bbox="-20 -170 734 750"
    underline-thickness="50"
    underline-position="-175"
    unicode-range="U+000D-E827"
  />
<missing-glyph horiz-adv-x="250" 
 />
    <glyph glyph-name=".notdef" horiz-adv-x="250" 
 />
    <glyph glyph-name=".null" horiz-adv-x="0" 
 />
    <glyph glyph-name=".null" horiz-adv-x="0" 
 />
    <glyph glyph-name="uni000D" unicode="&#xd;" horiz-adv-x="250" 
 />
    <glyph glyph-name="space" unicode=" " horiz-adv-x="130" 
 />
    <glyph glyph-name="exclam" unicode="!" horiz-adv-x="120" 
d="M40 40h40v-40h-40v40zM40 701h40v-604h-40v604z" />
    <glyph glyph-name="quotedbl" unicode="&#x22;" horiz-adv-x="160" 
d="M20 700h40v-229h-40v229zM100 700h40v-229h-40v229z" />
    <glyph glyph-name="numbersign" unicode="#" horiz-adv-x="616" 
d="M353 240l83 230h-172l-83 -230h172zM20 200v40h118l83 230h-148v40h162l68 190h43l-68 -190h172l68 190h43l-68 -190h103v-40h-117l-83 -230h147v-40h-161l-72 -200h-43l72 200h-172l-72 -200h-43l72 200h-104z" />
    <glyph glyph-name="dollar" unicode="$" horiz-adv-x="393" 
d="M354 677v-47q-15 10 -35 19q-17 7 -41.5 12.5t-56.5 5.5q-30 0 -59 -7t-51 -22.5t-35.5 -39.5t-13.5 -57q0 -40 21 -68.5t53 -51.5t70.5 -43.5t73.5 -45t61 -56.5t34 -77q3 -16 3 -34q0 -76 -48 -121t-130 -52v-41h-40v40q-36 1 -63.5 8t-45.5 15q-21 9 -36 21v50
q16 -16 38 -28q20 -11 49.5 -19.5t69.5 -8.5q33 0 63.5 8t54 24.5t37.5 42t14 60.5q0 43 -21.5 73.5t-54.5 55t-72 45.5t-74.5 45.5t-62 55t-33.5 73.5q-3 14 -3 30q0 69 47.5 114.5t132.5 50.5v43h40v-42q28 -2 49 -7t35 -10q17 -6 30 -14z" />
    <glyph glyph-name="percent" unicode="%" horiz-adv-x="600" 
d="M402 700h43l-251 -700h-43zM15 549q0 32 11.5 59.5t32 47.5t47.5 32t57 12q31 0 57.5 -12t46.5 -32t31.5 -47.5t11.5 -59.5q0 -31 -11.5 -59t-31.5 -48.5t-46.5 -32.5t-57.5 -12q-30 0 -57 12t-47.5 32.5t-32 48.5t-11.5 59zM55 551q0 -50 31 -82t77 -32q23 0 42.5 8.5
t33.5 23.5t22.5 36t8.5 46q0 23 -8.5 42.5t-22.5 34.5t-33.5 23.5t-42.5 8.5t-42.5 -8.5t-34 -23.5t-23 -34.5t-8.5 -42.5zM290 152q0 32 11.5 59.5t32 47.5t47.5 32t57 12q31 0 57.5 -12t46.5 -32t31.5 -47.5t11.5 -59.5q0 -31 -11.5 -59t-31.5 -48.5t-46.5 -32.5
t-57.5 -12q-30 0 -57 12t-47.5 32.5t-32 48.5t-11.5 59zM330 154q0 -50 31 -82t77 -32q23 0 42.5 8.5t33.5 23.5t22.5 36t8.5 46q0 22 -8.5 42t-22.5 35t-33.5 23.5t-42.5 8.5t-42.5 -8.5t-34 -23.5t-23 -35t-8.5 -42z" />
    <glyph glyph-name="ampersand" unicode="&#x26;" horiz-adv-x="483" 
d="M453 468h-42q0 41 -10.5 78t-32 65t-54.5 44t-77 16q-39 0 -68 -12t-49 -33t-30 -48.5t-10 -59.5q0 -31 12.5 -57t31.5 -44.5t42 -29t44 -10.5h7v-28h-7q-20 0 -46 -11.5t-49 -31.5t-39 -47t-16 -58q0 -30 11 -56.5t30.5 -47.5t46.5 -35.5t58 -19.5q8 -1 16.5 -1.5
t16.5 -0.5q43 0 77 15.5t57 42.5t35.5 64t12.5 80h42q0 -50 -15.5 -93t-43 -75t-67 -51t-87.5 -22v-50h-40v50q-40 3 -75 18.5t-60.5 41t-40 59.5t-14.5 75q0 28 10 55.5t29 50.5t46.5 39.5t63.5 23.5q-35 7 -61 23.5t-43.5 38.5t-26 48t-8.5 52q0 38 13.5 70t37.5 56t57 39
t72 18v41h40v-41q46 -3 83.5 -22t64 -51t41 -75t14.5 -93z" />
    <glyph glyph-name="quotesingle" unicode="'" 
d="M20 700h40v-229h-40v229z" />
    <glyph glyph-name="parenleft" unicode="(" horiz-adv-x="138" 
d="M81 0q-58 171 -60.5 346.5t60.5 353.5h37q-59 -171 -57 -346.5t57 -353.5h-37z" />
    <glyph glyph-name="parenright" unicode=")" horiz-adv-x="138" 
d="M20 0q55 178 57 353.5t-57 346.5h37q63 -178 60.5 -353.5t-60.5 -346.5h-37z" />
    <glyph glyph-name="asterisk" unicode="*" horiz-adv-x="440" 
d="M305 374l-85 136l-85 -136h-47l96 154l-144 32v41l160 -35v134h40v-135l160 36v-41l-144 -32l96 -154h-47z" />
    <glyph glyph-name="plus" unicode="+" horiz-adv-x="440" 
d="M240 170h-40v160h-160v40h160v160h40v-160h160v-40h-160v-160z" />
    <glyph glyph-name="comma" unicode="," 
d="M20 40h40v-121l-40 -18v139z" />
    <glyph glyph-name="hyphen" unicode="-" horiz-adv-x="440" 
d="M40 370h360v-40h-360v40z" />
    <glyph glyph-name="period" unicode="." 
d="M20 40h40v-40h-40v40z" />
    <glyph glyph-name="slash" unicode="/" horiz-adv-x="334" 
d="M271 700h43l-251 -700h-43z" />
    <glyph glyph-name="zero" unicode="0" horiz-adv-x="508" 
d="M30 353q0 93 16 160t45 111t70.5 65t92.5 21t92.5 -21t71 -64.5t45 -111t15.5 -160.5t-15.5 -160.5t-45 -111t-71 -64.5t-92.5 -21t-92.5 21t-70.5 65t-45 111t-16 160zM70 354q0 -318 185 -318q93 0 138 78.5t45 239.5q0 316 -183 316q-185 0 -185 -316z" />
    <glyph glyph-name="one" unicode="1" horiz-adv-x="146" 
d="M75 660h-70l30 40h81v-700h-41v660z" />
    <glyph glyph-name="two" unicode="2" horiz-adv-x="486" 
d="M33 468q0 52 13 96t39.5 76.5t66.5 51t94 18.5q50 0 87 -15.5t62.5 -42t38 -62t12.5 -76.5q0 -51 -18.5 -99t-48.5 -92t-67.5 -84.5t-77 -76t-76.5 -66.5t-65 -56h363v-40h-426v40q63 50 129.5 107t121 118.5t90 125t35.5 127.5q0 32 -10 60t-29.5 48.5t-48.5 32
t-68 11.5q-44 0 -77.5 -15t-55.5 -42t-33 -64t-11 -81h-40z" />
    <glyph glyph-name="three" unicode="3" horiz-adv-x="483" 
d="M30 468q0 53 16 97t45 76.5t69.5 50.5t89.5 18q43 0 80 -14t64.5 -39t43 -60t15.5 -77q0 -27 -7 -53.5t-22 -49t-38 -40t-55 -26.5q33 -9 57.5 -26t41 -39.5t25 -49t8.5 -53.5q0 -40 -16.5 -73.5t-45.5 -58t-68 -38t-83 -13.5q-51 0 -93.5 18t-73 50.5t-47 77t-16.5 96.5
h42q0 -43 12.5 -80t35.5 -64t57.5 -42.5t77.5 -15.5q38 0 70.5 11.5t56.5 32t37.5 48t13.5 59.5q0 29 -11 54t-30 43.5t-45.5 29.5t-58.5 11h-92v40h95q27 0 51 10t42 29t28.5 46t10.5 60q0 32 -10.5 60.5t-31 50t-50.5 34t-70 12.5q-44 0 -77.5 -15.5t-56 -42.5t-34 -64
t-11.5 -81h-42z" />
    <glyph glyph-name="four" unicode="4" horiz-adv-x="425" 
d="M345 666l-277 -364h277v364zM345 0v262h-325v40l303 398h62v-700h-40z" />
    <glyph glyph-name="five" unicode="5" horiz-adv-x="473" 
d="M20 242h40q0 -43 12 -80t34.5 -64t55 -42.5t73.5 -15.5q40 0 73 14t56 39.5t36 60t13 74.5q0 83 -52 125.5t-142 42.5h-172l55 304h321v-40h-290l-37 -224h125q70 0 115 -18.5t71 -48.5t36 -67t10 -74q0 -58 -19 -100.5t-50.5 -71t-72 -42.5t-83.5 -14q-51 0 -90 18.5
t-65 51t-39.5 76.5t-13.5 96z" />
    <glyph glyph-name="six" unicode="6" horiz-adv-x="534" 
d="M79 338q-19 -44 -19 -91q0 -45 16.5 -85t44.5 -69t65.5 -46t80.5 -17t80.5 17t65.5 46t44.5 69t16.5 85t-16.5 84t-44.5 68t-65.5 46t-80.5 17q-52 0 -96 -24.5t-73 -65.5zM283 700l-126 -225q25 13 52.5 20t57.5 7q51 0 96 -20t78.5 -55t53 -81.5t19.5 -99.5
t-19.5 -99.5t-53 -81.5t-78.5 -55t-96 -20t-96 20t-78.5 55t-53 81.5t-19.5 99.5q0 36 9 69.5t26 62.5l182 322h46z" />
    <glyph glyph-name="seven" unicode="7" horiz-adv-x="442" 
d="M422 700l-321 -700h-43l301 660h-339v40h402z" />
    <glyph glyph-name="eight" unicode="8" horiz-adv-x="484" 
d="M60 206q0 -37 14 -70t38.5 -57.5t58 -38.5t72.5 -14t72 14t57 38.5t38 57.5t14 70t-14 69.5t-38 57t-57 38.5t-72 14t-72.5 -14t-58 -38.5t-38.5 -57t-14 -69.5zM115 547q0 -25 10 -48t27.5 -40t40.5 -27t50 -10q26 0 49 10t40 27t27 40t10 48t-10 47.5t-27 39.5t-40 27
t-49 10q-27 0 -50 -10t-40.5 -27t-27.5 -39.5t-10 -47.5zM75 549q0 33 13 62.5t35.5 51.5t53 35t65.5 13t65.5 -13t53 -35t35.5 -51.5t13 -62.5q0 -47 -24 -84.5t-64 -58.5q32 -12 58.5 -32t45 -46.5t29 -58t10.5 -66.5q0 -45 -17 -84.5t-47 -69t-70.5 -46.5t-87.5 -17
t-87.5 17t-70.5 46.5t-47 69t-17 84.5q0 35 10.5 66.5t29 58t45 46.5t58.5 32q-40 21 -64 58.5t-24 84.5z" />
    <glyph glyph-name="nine" unicode="9" horiz-adv-x="534" 
d="M455 352q19 44 19 91q0 45 -16.5 85t-44.5 69t-65.5 46t-80.5 17t-80.5 -17t-65.5 -46t-44.5 -69t-16.5 -85t16.5 -84t44.5 -68t65.5 -46t80.5 -17q52 0 96 24.5t73 65.5zM251 -10l126 225q-25 -13 -52.5 -20t-57.5 -7q-51 0 -96 20t-78.5 55t-53 81.5t-19.5 99.5
t19.5 99.5t53 81.5t78.5 55t96 20t96 -20t78.5 -55t53 -81.5t19.5 -99.5q0 -36 -9 -69.5t-26 -62.5l-182 -322h-46z" />
    <glyph glyph-name="colon" unicode=":" 
d="M20 40h40v-40h-40v40zM20 540h40v-40h-40v40z" />
    <glyph glyph-name="semicolon" unicode=";" 
d="M20 40h40v-121l-40 -18v139zM20 540h40v-40h-40v40z" />
    <glyph glyph-name="less" unicode="&#x3c;" horiz-adv-x="420" 
d="M40 375l360 170v-45l-312 -147l312 -148v-45l-360 170v45z" />
    <glyph glyph-name="equal" unicode="=" horiz-adv-x="440" 
d="M40 428h360v-40h-360v40zM40 308h360v-40h-360v40z" />
    <glyph glyph-name="greater" unicode="&#x3e;" horiz-adv-x="420" 
d="M332 353l-312 147v45l360 -170v-45l-360 -170v45z" />
    <glyph glyph-name="question" unicode="?" horiz-adv-x="300" 
d="M20 97q0 43 17.5 77t43.5 64t56.5 58.5t56.5 59.5t43.5 67t17.5 81q0 33 -10.5 62.5t-31.5 52t-52.5 35.5t-73.5 13q-16 0 -28.5 -2t-21.5 -5q-10 -3 -17 -7v42q7 3 17 6q8 2 21.5 4t32.5 2q57 0 96 -19t63 -48.5t34.5 -65.5t10.5 -71q0 -50 -17.5 -88t-43.5 -70
t-56.5 -59.5t-56.5 -56t-43.5 -60.5t-17.5 -72h-40zM20 40h40v-40h-40v40z" />
    <glyph glyph-name="at" unicode="@" horiz-adv-x="740" 
d="M182 347q0 -37 12.5 -69.5t35 -56.5t52.5 -37.5t64 -13.5q35 0 65 13.5t52.5 37.5t35 56.5t12.5 69.5q0 36 -12.5 67.5t-35 55t-52.5 37t-65 13.5q-34 0 -64 -13.5t-52.5 -37t-35 -55t-12.5 -67.5zM511 153v106q-21 -57 -66.5 -93t-106.5 -36q-41 0 -77 17t-62.5 46
t-41.5 68.5t-15 84.5q0 44 15 83t41.5 68t62.5 46t77 17q61 0 106.5 -35.5t66.5 -92.5v111h40v-350h92q21 36 33.5 76t12.5 81q0 66 -25 124.5t-68 101.5t-101.5 68t-124.5 25t-124.5 -25t-101.5 -68t-68 -101.5t-25 -124.5q0 -68 26.5 -127.5t72 -103t106.5 -67.5t130 -21
v-31h-16q-73 0 -136.5 27.5t-111 75t-75 111t-27.5 136.5t27.5 136.5t75 111t111 75t136.5 27.5t136.5 -27.5t111 -75t75 -111t27.5 -136.5q0 -55 -17.5 -105t-46.5 -92h-145z" />
    <glyph glyph-name="A" unicode="A" horiz-adv-x="570" 
d="M439 228l-154 446l-154 -446h308zM118 188l-65 -188h-43l241 700h68l241 -700h-43l-65 188h-334z" />
    <glyph glyph-name="B" unicode="B" horiz-adv-x="446" 
d="M80 348v-308h128q39 0 71.5 11t56.5 31.5t37 48.5t13 62t-13.5 62.5t-37.5 49t-57.5 32t-74.5 11.5h-123zM80 388h111q75 0 120 39t45 101q0 61 -43.5 96.5t-117.5 35.5h-115v-272zM40 0v700h154q45 0 82 -12.5t64 -35t41.5 -54.5t14.5 -71q0 -56 -29 -97.5t-78 -59.5
q63 -17 100 -65t37 -115q0 -43 -16 -78t-45.5 -60t-70 -38.5t-90.5 -13.5h-164z" />
    <glyph glyph-name="C" unicode="C" horiz-adv-x="502" 
d="M20 353q0 74 27 139t73.5 113.5t107.5 76.5t128 28q28 0 49.5 -4t37.5 -9q18 -6 32 -13l7 -40q-14 7 -32 13q-16 5 -37.5 9t-48.5 4q-62 0 -117.5 -25t-97 -68t-65.5 -100.5t-24 -123.5q0 -65 24 -123t65.5 -101t96.5 -68t118 -25q27 0 48.5 4t37.5 9q18 6 32 13l-7 -40
q-14 -7 -32 -13q-16 -5 -37.5 -9t-49.5 -4q-67 0 -128 28t-107.5 76.5t-73.5 113.5t-27 139z" />
    <glyph glyph-name="D" unicode="D" horiz-adv-x="450" 
d="M80 40q69 1 126 24t98 64t63.5 97.5t22.5 124.5t-22.5 124.5t-63.5 97.5t-98 64t-126 24v-620zM40 0v700h40q74 0 138 -27.5t111 -75t74 -111.5t27 -136t-27 -136t-74 -111.5t-111 -75t-138 -27.5h-40z" />
    <glyph glyph-name="E" unicode="E" horiz-adv-x="407" 
d="M40 0v700h337l10 -40h-307v-284h287v-40h-287v-296h307l-10 -40h-337z" />
    <glyph glyph-name="F" unicode="F" horiz-adv-x="407" 
d="M80 660v-284h287v-40h-287v-336h-40v700h337l10 -40h-307z" />
    <glyph glyph-name="G" unicode="G" horiz-adv-x="642" 
d="M20 353q0 74 28 139t77 113.5t115.5 76.5t142.5 28q54 0 97.5 -12t75.5 -27q37 -17 66 -39l-32 -35q-26 20 -59 37q-28 14 -66 25t-83 11q-64 0 -122.5 -26t-103 -69.5t-70.5 -100.5t-26 -120q0 -64 26.5 -121.5t70.5 -101t103 -69.5t123 -26q30 0 60 5t56.5 12
t47.5 14.5t32 11.5v275h40v-300q-30 -16 -65 -29q-31 -11 -72 -20t-89 -9q-79 0 -147.5 28t-118.5 76.5t-78.5 113.5t-28.5 139z" />
    <glyph glyph-name="H" unicode="H" horiz-adv-x="480" 
d="M80 335v-335h-40v700h40v-325h320v325h40v-700h-40v335h-320z" />
    <glyph glyph-name="I" unicode="I" horiz-adv-x="120" 
d="M40 700h40v-700h-40v700z" />
    <glyph glyph-name="J" unicode="J" horiz-adv-x="226" 
d="M186 143q0 -144 -142 -144h-24v41h20q30 0 50.5 5.5t33 17.5t17.5 32.5t5 50.5v554h40v-557z" />
    <glyph glyph-name="K" unicode="K" horiz-adv-x="420" 
d="M360 0l-280 352v-352h-40v700h40v-333l270 333h50l-278 -342l288 -358h-50z" />
    <glyph glyph-name="L" unicode="L" horiz-adv-x="397" 
d="M40 0v700h40v-660h307l-10 -40h-337z" />
    <glyph glyph-name="M" unicode="M" horiz-adv-x="656" 
d="M328 223l-203 404l-69 -627h-41l84 700h32l197 -407l194 407h35l84 -700h-41l-70 634z" />
    <glyph glyph-name="N" unicode="N" horiz-adv-x="548" 
d="M508 700v-700h-25l-404 600l1 -66v-534h-40v700h24l404 -601v601h40z" />
    <glyph glyph-name="O" unicode="O" horiz-adv-x="754" 
d="M20 353q0 74 28 139t76.5 113.5t113.5 76.5t139 28t139 -28t113.5 -76.5t76.5 -113.5t28 -139t-28 -139t-76.5 -113.5t-113.5 -76.5t-139 -28t-139 28t-113.5 76.5t-76.5 113.5t-28 139zM60 354q0 -66 25 -124t68 -101t101 -68t123 -25t123 25t101 68t68 101t25 124
t-25 123.5t-68 100t-101 67.5t-123 25t-123 -25t-101 -67.5t-68 -100t-25 -123.5z" />
    <glyph glyph-name="P" unicode="P" horiz-adv-x="463" 
d="M80 290h128q44 0 80 14.5t61.5 40t39.5 60t14 74.5q0 41 -14.5 74.5t-40.5 57t-61.5 36.5t-78.5 13h-128v-370zM40 0v700h174q51 0 93 -16t72 -45t47 -70.5t17 -91.5t-16.5 -91.5t-47 -71.5t-73 -47t-93.5 -17h-133v-250h-40z" />
    <glyph glyph-name="Q" unicode="Q" horiz-adv-x="754" 
d="M60 354q0 -66 25 -124t68 -101t101 -68t123 -25t123 25t101 68t68 101t25 124t-25 123.5t-68 100t-101 67.5t-123 25t-123 -25t-101 -67.5t-68 -100t-25 -123.5zM20 353q0 74 28 139t76.5 113.5t113.5 76.5t139 28t139 -28t113.5 -76.5t76.5 -113.5t28 -139
q0 -54 -15.5 -103.5t-43 -91.5t-66 -75.5t-84.5 -54.5l120 -167h-49l-109 152q-54 -17 -110 -17q-74 0 -139 28t-113.5 76.5t-76.5 113.5t-28 139z" />
    <glyph glyph-name="R" unicode="R" horiz-adv-x="427" 
d="M80 370h93q38 0 69 11.5t53 32t33.5 48t11.5 60.5q0 66 -46 102t-121 36h-93v-290zM364 0l-284 329v-329h-40v700h131q46 0 84.5 -13t66 -37t43 -58t15.5 -75t-15 -75.5t-43 -59t-66.5 -38.5t-85.5 -14h-41l288 -330h-53z" />
    <glyph glyph-name="S" unicode="S" horiz-adv-x="393" 
d="M354 677v-47q-15 10 -35 19q-17 7 -41.5 12.5t-56.5 5.5q-73 0 -116 -34.5t-43 -91.5q0 -43 23.5 -72.5t58.5 -53t76 -45.5t76 -49.5t58.5 -64.5t23.5 -91q0 -83 -56 -128.5t-151 -45.5q-39 0 -68 7t-49 15q-23 10 -39 22v50q16 -16 38 -28q20 -11 49.5 -19.5t69.5 -8.5
q80 0 124.5 37.5t44.5 97.5q0 45 -24 76.5t-59.5 57t-77 48t-77 49.5t-59.5 62t-24 85q0 37 14 67.5t40 52.5t63.5 34t84.5 12q32 0 56.5 -5t41.5 -10q19 -7 34 -16z" />
    <glyph glyph-name="T" unicode="T" horiz-adv-x="424" 
d="M20 660l10 40h364l10 -40h-172v-661h-40v661h-172z" />
    <glyph glyph-name="U" unicode="U" horiz-adv-x="495" 
d="M40 700h41v-501q0 -78 43 -120.5t124 -42.5t124 42.5t43 120.5v501h40v-502q0 -45 -15 -82t-42.5 -63.5t-65.5 -41.5t-84 -15t-84 15t-65.5 41.5t-42.5 63.5t-15 82z" />
    <glyph glyph-name="V" unicode="V" horiz-adv-x="528" 
d="M518 700l-231 -700h-46l-231 700h43l211 -668l211 668h43z" />
    <glyph glyph-name="W" unicode="W" horiz-adv-x="708" 
d="M352 500l-196 -500h-12l-134 700h43l105 -591l196 483l193 -482l111 590h40l-134 -700h-11z" />
    <glyph glyph-name="X" unicode="X" horiz-adv-x="507" 
d="M497 0h-48l-195 312l-196 -312h-48l220 350l-220 350h48l196 -312l195 312h48l-219 -350z" />
    <glyph glyph-name="Y" unicode="Y" horiz-adv-x="488" 
d="M478 700l-304 -700h-44l106 244l-226 456h46l200 -410l178 410h44z" />
    <glyph glyph-name="Z" unicode="Z" horiz-adv-x="459" 
d="M0 0l388 660h-338l10 40h399l-388 -660h351l-10 -40h-412z" />
    <glyph glyph-name="bracketleft" unicode="[" horiz-adv-x="176" 
d="M156 0h-116v700h116v-40h-76v-620h76v-40z" />
    <glyph glyph-name="backslash" unicode="\" horiz-adv-x="334" 
d="M271 0l-251 700h43l251 -700h-43z" />
    <glyph glyph-name="bracketright" unicode="]" horiz-adv-x="176" 
d="M20 0v40h76v620h-76v40h116v-700h-116z" />
    <glyph glyph-name="asciicircum" unicode="^" horiz-adv-x="265" 
d="M155 700l90 -200h-44l-68 152l-69 -152h-44l90 200h45z" />
    <glyph glyph-name="underscore" unicode="_" horiz-adv-x="537" 
d="M40 0h457v-40h-457v40z" />
    <glyph glyph-name="a" unicode="a" horiz-adv-x="445" 
d="M55 186q0 -33 12 -61.5t33.5 -49.5t51 -33t63.5 -12t63.5 12t51 33t33.5 49.5t12 61.5q0 32 -12 60t-33.5 49t-51 33t-63.5 12t-63.5 -12t-51 -33t-33.5 -49t-12 -60zM15 186q0 40 15 75.5t41.5 61.5t63 41.5t79.5 15.5q58 0 98.5 -26.5t62.5 -68.5v94q0 57 -36.5 94
t-105.5 37q-30 0 -55 -6.5t-43 -14.5q-21 -9 -38 -21v43q16 11 37 20q17 7 43 13t59 6q85 0 132 -45t47 -124v-381h-40v91q-25 -46 -69 -73.5t-99 -27.5q-40 0 -75 15.5t-61 42t-41 62t-15 76.5z" />
    <glyph glyph-name="b" unicode="b" horiz-adv-x="585" 
d="M75 273q0 -52 17.5 -96.5t48.5 -77t72.5 -51t89.5 -18.5t89 18.5t72 51t48.5 77t17.5 96.5q0 50 -17.5 93t-48.5 74.5t-72 50t-89 18.5t-89.5 -18.5t-72.5 -50t-48.5 -74.5t-17.5 -93zM70 403q14 30 37.5 56.5t54 47t67.5 32t77 11.5q55 0 103 -22t84 -60t56.5 -88.5
t20.5 -108.5t-21 -109.5t-58 -89.5t-85.5 -60t-104.5 -22t-105.5 20.5t-86 58t-58 89t-21.5 113.5v429h40v-297z" />
    <glyph glyph-name="c" unicode="c" horiz-adv-x="410" 
d="M15 271q0 58 21.5 108.5t59 88.5t87.5 60t106 22q26 0 44 -4t30 -9q13 -6 22 -13v-46q-11 9 -26 16q-13 6 -31.5 11t-43.5 5q-46 0 -87.5 -19.5t-73 -52t-50 -75.5t-18.5 -90q0 -49 19 -93t51.5 -77.5t75 -53t90.5 -19.5q22 0 39.5 3.5t29.5 8.5q14 5 25 11v-38
q-9 -7 -22 -12q-12 -5 -29.5 -9t-43.5 -4q-57 0 -107 22t-87.5 60t-59 89.5t-21.5 109.5z" />
    <glyph glyph-name="d" unicode="d" horiz-adv-x="574" 
d="M55 273q0 -51 17.5 -95.5t48 -77t71.5 -51.5t88 -19t88 19t71 51.5t47.5 77t17.5 95.5q0 48 -17.5 91t-47.5 75.5t-71 51t-88 18.5t-88 -18.5t-71.5 -51t-48 -75.5t-17.5 -91zM504 0v144q-29 -69 -87.5 -112t-138.5 -42q-55 0 -103.5 22t-83.5 60.5t-55.5 89.5t-20.5 109
q0 57 20 108t55.5 89t83 60t101.5 22q78 0 138.5 -43.5t90.5 -113.5v307h40v-700h-40z" />
    <glyph glyph-name="e" unicode="e" horiz-adv-x="540" 
d="M485 409q-6 13 -23.5 30.5t-43 33.5t-58 27t-68.5 11q-44 0 -86.5 -17t-76 -48.5t-54 -76t-20.5 -98.5q0 -26 5 -49t13 -43zM15 268q0 58 21.5 109.5t59 90t88.5 61t109 22.5q53 0 95.5 -17t73.5 -42t51 -53.5t27 -50.5l-448 -243q19 -29 45 -50.5t55.5 -36t60.5 -22
t61 -7.5q41 0 74 11.5t57 25.5q28 16 51 37v-41q-19 -20 -47 -36q-23 -14 -57 -25.5t-80 -11.5q-58 0 -111.5 21t-94.5 58t-66 88t-25 112z" />
    <glyph glyph-name="f" unicode="f" horiz-adv-x="251" 
d="M235 501h-121v-501h-40v501h-59v40h59v32q0 34 9.5 58t24.5 39.5t34 22.5t37 7q12 0 22.5 -2.5t18.5 -5.5q9 -4 16 -8v-36q-5 4 -12 8q-6 3 -14.5 5.5t-19.5 2.5q-34 0 -55 -25t-21 -63v-35h121v-40z" />
    <glyph glyph-name="g" unicode="g" horiz-adv-x="510" 
d="M56 302q0 -41 14.5 -78t40 -64.5t61 -43.5t76.5 -16t76.5 16t61 43.5t40 64.5t14.5 78q0 44 -14.5 81.5t-40 66t-61 44.5t-76.5 16t-76.5 -16t-61 -44.5t-40 -66t-14.5 -81.5zM480 93q0 -56 -15.5 -104.5t-46 -83.5t-76.5 -55t-107 -20q-48 0 -81.5 10.5t-56.5 23.5
q-25 16 -42 35v51q18 -21 45 -38q23 -14 57 -25.5t81 -11.5q50 0 88 15.5t63.5 44t38 68.5t12.5 89v85q-23 -53 -69.5 -85t-115.5 -32q-53 0 -97.5 19.5t-76 52.5t-49 77.5t-17.5 94.5q0 51 17.5 96t49 78t76 52.5t97.5 19.5q69 0 115.5 -32t69.5 -85v107h40v-447z" />
    <glyph glyph-name="h" unicode="h" horiz-adv-x="429" 
d="M70 700v-253q20 45 63.5 74t101.5 29q40 0 70.5 -15t51.5 -40.5t31.5 -60t10.5 -74.5v-360h-40v354q0 81 -37 118.5t-95 37.5q-34 0 -63 -12t-50 -33t-32.5 -49.5t-11.5 -60.5v-355h-40v700h40z" />
    <glyph glyph-name="i" unicode="i" horiz-adv-x="100" 
d="M30 540h40v-540h-40v540zM30 700h40v-80h-40v80z" />
    <glyph glyph-name="j" unicode="j" horiz-adv-x="100" 
d="M30 700h40v-80h-40v80zM70 -81q0 -41 -21 -60.5t-59 -19.5l-10 40q27 0 38.5 10t11.5 34v617h40v-621z" />
    <glyph glyph-name="k" unicode="k" horiz-adv-x="380" 
d="M313 0l-243 305v-305h-40v700h40v-395l236 235h52l-239 -237l246 -303h-52z" />
    <glyph glyph-name="l" unicode="l" horiz-adv-x="100" 
d="M30 700h40v-700h-40v700z" />
    <glyph glyph-name="m" unicode="m" horiz-adv-x="678" 
d="M648 -4h-40v364q0 73 -31.5 109.5t-83.5 36.5q-30 0 -55.5 -12t-44 -33t-28.5 -49.5t-10 -60.5v-351h-40v364q0 73 -27.5 109.5t-80.5 36.5q-31 0 -56 -12t-43 -33t-28 -49.5t-10 -60.5v-355h-40v540h40v-88q18 42 56 70t90 28q55 0 89 -32t45 -83q17 48 57 79.5t95 31.5
q35 0 62.5 -14t46 -38.5t28 -57t9.5 -70.5v-370z" />
    <glyph glyph-name="n" unicode="n" horiz-adv-x="429" 
d="M70 540v-93q20 45 63.5 74t101.5 29q40 0 70.5 -15t51.5 -40.5t31.5 -60t10.5 -74.5v-360h-40v354q0 81 -37 118.5t-95 37.5q-34 0 -63 -12t-50 -33t-32.5 -49.5t-11.5 -60.5v-355h-40v540h40z" />
    <glyph glyph-name="o" unicode="o" horiz-adv-x="590" 
d="M15 271q0 58 22.5 108.5t60.5 88.5t89.5 60t109.5 22q57 0 107.5 -22t88.5 -60t60 -88.5t22 -108.5t-22 -109.5t-60 -89.5t-88.5 -60t-107.5 -22q-58 0 -109.5 22t-89.5 60t-60.5 89.5t-22.5 109.5zM55 273q0 -52 19 -96.5t51.5 -77t76.5 -51t95 -18.5q49 0 92.5 18.5
t75.5 51t51 77t19 96.5q0 50 -19 93t-51 75t-75.5 50.5t-92.5 18.5q-51 0 -95 -18.5t-76.5 -50.5t-51.5 -75t-19 -93z" />
    <glyph glyph-name="p" unicode="p" horiz-adv-x="584" 
d="M529 267q0 51 -17.5 95.5t-48 77t-71.5 51.5t-88 19t-88 -19t-71 -51.5t-47.5 -77t-17.5 -95.5q0 -48 17.5 -91t47.5 -75.5t71 -51t88 -18.5t88 18.5t71.5 51t48 75.5t17.5 91zM80 540v-144q29 69 87.5 112t138.5 42q56 0 104 -22t83 -60.5t55.5 -89.5t20.5 -109
q0 -57 -20 -108t-55.5 -89t-83 -60t-101.5 -22q-78 0 -138.5 43.5t-90.5 113.5v-307h-40v700h40z" />
    <glyph glyph-name="q" unicode="q" horiz-adv-x="584" 
d="M55 267q0 -48 17.5 -91t48 -75.5t71.5 -51t88 -18.5t88 18.5t71 51t47.5 75.5t17.5 91q0 51 -17.5 95.5t-47.5 77t-71 51.5t-88 19t-88 -19t-71.5 -51.5t-48 -77t-17.5 -95.5zM504 540h40v-700h-40v307q-30 -70 -90.5 -113.5t-138.5 -43.5q-54 0 -101.5 22t-83 60
t-55.5 89t-20 108q0 58 20.5 109t55.5 89.5t83.5 60.5t103.5 22q80 1 138.5 -42t87.5 -112v144z" />
    <glyph glyph-name="r" unicode="r" horiz-adv-x="255" 
d="M80 540v-92q25 51 71 76.5t99 25.5v-40q-30 0 -60.5 -8t-54.5 -30.5t-39.5 -61.5t-15.5 -101v-309h-40v540h40z" />
    <glyph glyph-name="s" unicode="s" horiz-adv-x="351" 
d="M292 517v-39q-14 8 -31 15q-14 6 -32 10.5t-38 4.5q-21 0 -42.5 -6t-39 -18t-28.5 -29.5t-11 -39.5q0 -29 19 -48.5t47.5 -35t61.5 -30t61.5 -34.5t47.5 -48t19 -70q0 -32 -12 -61t-34.5 -50.5t-54.5 -34t-73 -12.5q-32 0 -55.5 7t-39.5 15q-19 10 -32 22v41
q15 -13 34 -23q16 -8 38.5 -15.5t51.5 -7.5q26 0 51 7t44.5 21.5t31 35.5t11.5 49q0 37 -19 61t-47.5 42t-62 33t-62 32.5t-47.5 41.5t-19 60q0 27 11.5 51t32 43t50 30t65.5 11q25 0 44 -5t32 -10q16 -7 27 -16z" />
    <glyph glyph-name="t" unicode="t" horiz-adv-x="201" 
d="M186 500h-87v-392q0 -21 3 -34t12 -20.5t26 -10.5t46 -3v-40h-36q-55 0 -73 24.5t-18 73.5v402h-44v40h44v109l40 22v-131h87v-40z" />
    <glyph glyph-name="u" unicode="u" horiz-adv-x="429" 
d="M359 0v93q-20 -45 -63.5 -74t-101.5 -29q-40 0 -70.5 15t-51.5 40.5t-31.5 60t-10.5 74.5v360h40v-354q0 -42 10.5 -71.5t28.5 -48t42 -27.5t52 -9q34 0 62.5 12t49.5 33t32.5 49.5t11.5 60.5v355h40v-540h-40z" />
    <glyph glyph-name="v" unicode="v" horiz-adv-x="459" 
d="M262 0h-65l-197 540h43l187 -511l186 511h43z" />
    <glyph glyph-name="w" unicode="w" horiz-adv-x="673" 
d="M465 0l-132 484l-131 -484h-45l-147 540h45l125 -473l129 473h49l132 -484l128 484h45l-147 -540h-51z" />
    <glyph glyph-name="x" unicode="x" horiz-adv-x="427" 
d="M57 0h-46l168 278l-169 262h48l141 -229l137 229h48l-163 -262l196 -278h-47l-169 244z" />
    <glyph glyph-name="y" unicode="y" horiz-adv-x="472" 
d="M188 -160h-41l76 188l-223 512h40l203 -463l188 463h41z" />
    <glyph glyph-name="z" unicode="z" horiz-adv-x="366" 
d="M356 0h-356l292 500h-271v40h345l-292 -500h282v-40z" />
    <glyph glyph-name="braceleft" unicode="{" horiz-adv-x="196" 
d="M60 284q0 24 -9.5 43.5t-30.5 33.5q18 14 29 30.5t11 34.5v230q0 44 44 44h72v-40h-50q-26 0 -26 -26v-208q0 -18 -8 -35t-24 -30q16 -11 24 -33.5t8 -43.5v-218q0 -26 26 -26h50v-40h-72q-44 0 -44 44v240z" />
    <glyph glyph-name="bar" unicode="|" horiz-adv-x="120" 
d="M40 700h40v-700h-40v700z" />
    <glyph glyph-name="braceright" unicode="}" horiz-adv-x="196" 
d="M136 44q0 -44 -44 -44h-72v40h50q26 0 26 26v218q0 21 8 43.5t24 33.5q-16 13 -24 30t-8 35v208q0 26 -26 26h-50v40h72q44 0 44 -44v-230q0 -18 11 -34.5t29 -30.5q-21 -14 -30.5 -33.5t-9.5 -43.5v-240z" />
    <glyph glyph-name="tilde" unicode="&#x2dc;" horiz-adv-x="400" 
d="M20 370q26 17 48 24t42 7q26 0 47.5 -9t43 -20t44 -20t49.5 -9q19 0 40 6.5t46 20.5v-40q-27 -14 -49.5 -20.5t-41.5 -6.5q-27 0 -49.5 9t-43.5 20t-42 20t-46 9q-19 0 -40.5 -7t-47.5 -24v40z" />
    <glyph glyph-name="quoteleft" unicode="&#x2018;" 
d="M60 421h-40v240l40 39v-279z" />
    <glyph glyph-name="quoteright" unicode="&#x2019;" 
d="M20 700h40v-240l-40 -39v279z" />
    <glyph glyph-name="quotedblleft" unicode="&#x201c;" horiz-adv-x="160" 
d="M60 421h-40v250l40 29v-279zM140 421h-40v250l40 29v-279z" />
    <glyph glyph-name="quotedblright" unicode="&#x201d;" horiz-adv-x="160" 
d="M100 700h40v-250l-40 -29v279zM20 700h40v-250l-40 -29v279z" />
    <glyph glyph-name="Euro" unicode="&#x20ac;" horiz-adv-x="539" 
d="M20 375v40h42q10 63 39 117t74.5 93.5t106 62t133.5 22.5q26 0 47 -2.5t36 -5.5q17 -4 31 -8v-44q-14 6 -31 10q-16 4 -37.5 7t-48.5 3q-63 0 -114.5 -19.5t-90 -53.5t-62.5 -80.5t-33 -101.5h366v-40h-370q-1 -5 -1 -11v-11v-13.5t1 -13.5h370v-40h-365
q9 -54 33.5 -99.5t62.5 -79t88.5 -52.5t112.5 -19q28 0 50 3t37 8q18 4 32 10v-43q-14 -5 -32 -9q-15 -3 -37 -6t-49 -3q-70 0 -129.5 22t-104.5 61t-74 92t-40 115h-43v40h38q-1 7 -1 13.5v13.5v11t1 11h-38z" />
    <glyph glyph-name="uniE800" unicode="&#xe800;" horiz-adv-x="502" 
d="M20 353q0 74 27.5 139t74.5 113.5t108.5 76.5t130.5 28q28 0 50 -4t38 -9q19 -6 33 -13v-40q-14 7 -32 13q-16 5 -37.5 9t-48.5 4q-62 0 -117.5 -25t-97 -68t-65.5 -100.5t-24 -123.5q0 -65 24 -123t65.5 -101t96.5 -68t118 -25q27 0 48.5 4t37.5 9q18 6 32 13v-40
q-14 -7 -32 -13q-16 -5 -38 -9t-50 -4q-69 0 -131 28t-109 76.5t-74.5 113.5t-27.5 139z" />
    <glyph glyph-name="uniE801" unicode="&#xe801;" horiz-adv-x="407" 
d="M40 0v700h347v-40h-307v-284h287v-40h-287v-296h307v-40h-347z" />
    <glyph glyph-name="uniE802" unicode="&#xe802;" horiz-adv-x="407" 
d="M80 336v-336h-40v700h347v-40h-307v-284h287v-40h-287z" />
    <glyph glyph-name="uniE803" unicode="&#xe803;" horiz-adv-x="642" 
d="M20 353q0 74 28 139t77 113.5t115.5 76.5t142.5 28q54 0 97.5 -12t75.5 -27q37 -17 66 -39l-32 -35q-26 20 -59 37q-28 14 -66 25t-83 11q-64 0 -122.5 -26t-103 -69.5t-70.5 -100.5t-26 -120q0 -64 26.5 -121.5t70.5 -101t103 -69.5t123 -26q30 0 60 5t56.5 12
t47.5 14.5t32 11.5v247h-267l13 40h294v-312q-30 -16 -65 -29q-31 -11 -72 -20t-89 -9q-79 0 -147.5 28t-118.5 76.5t-78.5 113.5t-28.5 139z" />
    <glyph glyph-name="uniE804" unicode="&#xe804;" horiz-adv-x="397" 
d="M40 0v700h40v-660h307v-40h-347z" />
    <glyph glyph-name="uniE805" unicode="&#xe805;" horiz-adv-x="598" 
d="M293 288l-213 319v-607h-40v700h24l229 -340l240 340h25v-700h-40v612z" />
    <glyph glyph-name="uniE806" unicode="&#xe806;" horiz-adv-x="524" 
d="M484 700v-700h-40l-364 609v-609h-40v700h40l364 -621v621h40z" />
    <glyph glyph-name="uniE807" unicode="&#xe807;" horiz-adv-x="424" 
d="M20 660v40h384v-40h-172v-661h-40v661h-172z" />
    <glyph glyph-name="uniE809" unicode="&#xe809;" horiz-adv-x="485" 
d="M223 0v298l-213 402h45l188 -355l187 355h45l-212 -399v-301h-40z" />
    <glyph glyph-name="uniE80A" unicode="&#xe80a;" horiz-adv-x="459" 
d="M0 0l388 660h-328v40h399l-388 -660h351v-40h-422z" />
    <glyph glyph-name="uniE80B" unicode="&#xe80b;" horiz-adv-x="574" 
d="M519 273q0 48 -17.5 91t-48 75.5t-71.5 51t-88 18.5t-88 -18.5t-71 -51t-47.5 -75.5t-17.5 -91q0 -51 17.5 -95.5t47.5 -77t71 -51.5t88 -19t88 19t71.5 51.5t48 77t17.5 95.5zM70 0h-40v700h40v-307q30 70 90.5 113.5t138.5 43.5q54 0 101.5 -22t83 -60t55.5 -89
t20 -108q0 -58 -20.5 -109t-55.5 -89.5t-83 -60.5t-104 -22q-80 -1 -138.5 42t-87.5 112v-144z" />
    <glyph glyph-name="uniE80C" unicode="&#xe80c;" horiz-adv-x="540" 
d="M491 293q0 41 -13 80.5t-38.5 70t-64 49t-90.5 18.5q-46 0 -87 -16t-71.5 -44.5t-49.5 -68.5t-22 -89h436zM15 268q0 58 19 109.5t54.5 90t85 61t110.5 22.5q54 0 99.5 -18t78 -50.5t50.5 -77t18 -97.5v-55h-474q5 -54 28.5 -95.5t58.5 -70t77.5 -43.5t84.5 -15
q43 0 78 13t61 29q30 18 54 41l21 -26q-26 -27 -60 -48q-29 -19 -68.5 -34t-89.5 -15q-54 0 -105 21t-91.5 58t-65 88t-24.5 112z" />
    <glyph glyph-name="uniE80D" unicode="&#xe80d;" horiz-adv-x="502" 
d="M20 353q0 74 27.5 139t74.5 113.5t108.5 76.5t130.5 28q28 0 50 -4t38 -9q19 -6 33 -13v-40q-14 7 -32 13q-16 5 -37.5 9t-48.5 4q-61 0 -115 -24t-95.5 -65t-66.5 -97t-27 -119h397v-40h-396q5 -60 31 -113t66.5 -92t93.5 -61.5t112 -22.5q27 0 48.5 4t37.5 9
q18 6 32 13v-40q-14 -7 -32 -13q-16 -5 -38 -9t-50 -4q-69 0 -131 28t-109 76.5t-74.5 113.5t-27.5 139z" />
    <glyph glyph-name="uniE80E" unicode="&#xe80e;" horiz-adv-x="201" 
d="M174 501h-80v-572q0 -45 -19.5 -67t-48.5 -22q-18 0 -32 7q-7 3 -12 7v38q3 -3 7 -6q4 -2 9.5 -4t13.5 -2q25 0 33.5 15.5t8.5 36.5v569h-39v40h39v55q0 54 23.5 79t63.5 25q21 0 33 -5q7 -2 12 -5v-38q-4 2 -10 4q-5 2 -11.5 3t-16.5 1q-32 0 -43 -16t-11 -37v-66h80
v-40z" />
    <glyph glyph-name="uniE80F" unicode="&#xe80f;" horiz-adv-x="374" 
d="M406 -160l-336 465v-305h-40v700h40v-395l236 235h52l-239 -237l339 -463h-52z" />
    <glyph glyph-name="uniE810" unicode="&#xe810;" horiz-adv-x="431" 
d="M292 517v-39q-14 8 -31 15q-14 6 -31.5 10.5t-37.5 4.5q-21 0 -43 -7t-39.5 -20t-28.5 -32.5t-11 -43.5q0 -37 25 -61t62 -44t81 -39.5t81 -47t62 -66.5t25 -97q0 -44 -15.5 -82t-44.5 -66.5t-71.5 -45t-96.5 -16.5q-37 0 -65.5 7t-48.5 15q-22 10 -39 22v41
q19 -13 44 -24q21 -8 50.5 -15.5t64.5 -7.5q37 0 70.5 10t58.5 30t39.5 50t14.5 70q0 53 -25 89t-62.5 62.5t-81 47t-81 42.5t-62.5 50.5t-25 69.5q0 27 11.5 53.5t32.5 48t51 34.5t67 13q24 0 42.5 -5t31.5 -10q15 -7 26 -16z" />
    <glyph glyph-name="uniE811" unicode="&#xe811;" horiz-adv-x="574" 
d="M55 273q0 -51 17.5 -95.5t48 -77t71.5 -51.5t88 -19t88 19t71 51.5t47.5 77t17.5 95.5q0 48 -17.5 91t-47.5 75.5t-71 51t-88 18.5t-88 -18.5t-71.5 -51t-48 -75.5t-17.5 -91zM504 0v144q-29 -69 -87.5 -112t-138.5 -42q-55 0 -103.5 22t-83.5 60.5t-55.5 89.5t-20.5 109
q0 57 20 108t55.5 89t83 60t101.5 22q78 0 138.5 -43.5t90.5 -113.5v147h40v-540h-40z" />
    <glyph glyph-name="uniE812" unicode="&#xe812;" horiz-adv-x="220" 
d="M205 500h-86v-500h-40v500h-64v40h64v112l40 19v-131h86v-40z" />
    <glyph glyph-name="uniE813" unicode="&#xe813;" horiz-adv-x="376" 
d="M665 -160q-81 2 -140 14.5t-106 30.5t-87.5 38t-85 37t-97 28.5t-124.5 11.5h-25l297 500h-276v40h349l-303 -504q62 -2 111 -15t92.5 -31.5t85 -39.5t87 -38.5t99.5 -29.5t123 -12v-30z" />
    <glyph glyph-name="uniE814" unicode="&#xe814;" horiz-adv-x="259" 
d="M40 0v700h40v-660h159v-40h-199z" />
    <glyph glyph-name="uniE815" unicode="&#xe815;" horiz-adv-x="495" 
d="M81 261h334v240q0 78 -43 120.5t-124 42.5q-76 0 -121.5 -41t-45.5 -122v-240zM41 502q0 45 15 82t42.5 63.5t65.5 41.5t84 15t84 -15t65.5 -41.5t42.5 -63.5t15 -82v-502h-40v221h-334v-221h-41z" />
    <glyph glyph-name="uniE816" unicode="&#xe816;" horiz-adv-x="726" 
d="M686 0h-41v522q0 69 -33.5 105.5t-96.5 36.5t-96.5 -36.5t-33.5 -105.5v-522h-40v522q0 69 -34.5 105.5t-97.5 36.5t-97.5 -36.5t-34.5 -105.5v-522h-41l1 519q0 41 12 75t34 58.5t53 38t68 13.5q56 0 96.5 -29t58.5 -80q17 51 57.5 80t96.5 29q37 0 67.5 -13.5t53 -38
t35 -58.5t12.5 -75z" />
    <glyph glyph-name="uniE817" unicode="&#xe817;" horiz-adv-x="495" 
d="M41 502q0 45 15 82t42.5 63.5t65.5 41.5t84 15t84 -15t65.5 -41.5t42.5 -63.5t15 -82v-502h-40v501q0 78 -43 120.5t-124 42.5t-124 -42.5t-43 -120.5v-501h-41z" />
    <glyph glyph-name="uniE818" unicode="&#xe818;" horiz-adv-x="726" 
d="M685 181q0 -41 -12.5 -75t-35 -58.5t-53 -38t-67.5 -13.5q-56 0 -96.5 29t-57.5 80q-18 -51 -58.5 -80t-96.5 -29q-37 0 -68 13.5t-53 38t-34 58.5t-12 75l-1 519h41v-522q0 -69 34.5 -105.5t97.5 -36.5t97.5 36.5t34.5 105.5v522h40v-522q0 -69 33.5 -105.5t96.5 -36.5
t96.5 36.5t33.5 105.5v522h41z" />
    <glyph glyph-name="uniE819" unicode="&#xe819;" horiz-adv-x="585" 
d="M510 267q0 52 -17.5 96.5t-48.5 77t-72.5 51t-89.5 18.5t-89 -18.5t-72 -51t-48.5 -77t-17.5 -96.5q0 -49 17.5 -92.5t48.5 -75t72 -50t89 -18.5t89.5 18.5t72.5 50t48.5 75t17.5 92.5zM515 137q-14 -30 -37.5 -56.5t-54 -47t-67 -32t-77.5 -11.5q-55 0 -103 22t-84 60
t-56.5 88.5t-20.5 108.5q0 59 21 110t58 89t86 60t104 22q56 0 105.5 -20.5t86 -58t58 -89t21.5 -113.5v-285h-40v153z" />
    <glyph glyph-name="uniE81A" unicode="&#xe81a;" horiz-adv-x="585" 
d="M510 273q0 50 -17.5 93t-48.5 74.5t-72.5 50t-89.5 18.5t-89 -18.5t-72 -50t-48.5 -74.5t-17.5 -93q0 -52 17.5 -96.5t48.5 -77t72 -51t89 -18.5t89.5 18.5t72.5 51t48.5 77t17.5 96.5zM555 271q0 -62 -21.5 -113.5t-58 -89t-86 -58t-105.5 -20.5q-55 0 -104 22t-86 60
t-58 89.5t-21 109.5t20.5 108.5t56.5 88.5t84 60t103 22q41 0 77.5 -11.5t67 -32t54 -47t37.5 -56.5v297h40v-429z" />
    <glyph glyph-name="uniE81B" unicode="&#xe81b;" horiz-adv-x="520" 
d="M450 302q0 44 -15 82t-41.5 66t-62.5 44t-78 16t-78.5 -16t-63 -44t-41.5 -66t-15 -82q0 -42 15 -79t41.5 -64t63 -43t78.5 -16t78 16t62.5 43t41.5 64t15 79zM490 93q0 -56 -15 -104.5t-46.5 -83.5t-78.5 -55t-112 -20q-42 0 -73 7.5t-51 16.5q-23 11 -39 25v46
q24 -15 51 -28q24 -10 55.5 -18.5t66.5 -8.5q40 0 76.5 13.5t64.5 41.5t44.5 71t16.5 101v74q-13 -21 -32.5 -40.5t-45 -35.5t-56.5 -25.5t-67 -9.5q-50 0 -92.5 19.5t-74 52.5t-49.5 77.5t-18 94.5q0 51 18.5 96t51 78t77 52.5t96.5 19.5q54 0 97 -20.5t73 -56t46 -83
t16 -100.5v-197z" />
    <glyph glyph-name="uniE81C" unicode="&#xe81c;" horiz-adv-x="665" 
d="M635 0h-41v369q0 65 -32.5 100t-89.5 35t-89.5 -35t-32.5 -100v-369h-45v369q0 65 -31 100t-86 35t-86 -35t-31 -100v-369h-41l1 366q0 39 11 72t31 56.5t48 36.5t62 13q54 0 92.5 -32t52.5 -86q14 54 53.5 86t95.5 32q35 0 64 -13t49.5 -36.5t32 -56.5t11.5 -72z" />
    <glyph glyph-name="uniE81D" unicode="&#xe81d;" horiz-adv-x="474" 
d="M40 338q0 46 14.5 84t40.5 65t62.5 42t79.5 15q44 0 80 -15t62 -42t40.5 -65t14.5 -84v-338h-40v322q0 88 -41 135t-116 47t-116 -47t-41 -135v-322h-40v338z" />
    <glyph glyph-name="uniE81E" unicode="&#xe81e;" horiz-adv-x="585" 
d="M75 267q0 -49 17.5 -92.5t48.5 -75t72.5 -50t89.5 -18.5t89 18.5t72 50t48.5 75t17.5 92.5q0 52 -17.5 96.5t-48.5 77t-72 51t-89 18.5t-89.5 -18.5t-72.5 -51t-48.5 -77t-17.5 -96.5zM30 269q0 62 21.5 113.5t58 89t86 58t105.5 20.5t104.5 -22t85.5 -60t58 -89t21 -110
q0 -58 -20.5 -108.5t-56.5 -88.5t-84 -60t-103 -22q-40 0 -77 11.5t-67.5 32t-54 47t-37.5 56.5v-297h-40v429z" />
    <glyph glyph-name="uniE81F" unicode="&#xe81f;" horiz-adv-x="585" 
d="M510 267q0 52 -17.5 96.5t-48.5 77t-72.5 51t-89.5 18.5t-89 -18.5t-72 -51t-48.5 -77t-17.5 -96.5q0 -49 17.5 -92.5t48.5 -75t72 -50t89 -18.5t89.5 18.5t72.5 50t48.5 75t17.5 92.5zM515 137q-14 -30 -37.5 -56.5t-54 -47t-67 -32t-77.5 -11.5q-55 0 -103 22t-84 60
t-56.5 88.5t-20.5 108.5q0 59 21 110t58 89t86 60t104 22q56 0 105.5 -20.5t86 -58t58 -89t21.5 -113.5v-429h-40v297z" />
    <glyph glyph-name="uniE820" unicode="&#xe820;" horiz-adv-x="474" 
d="M40 540h40v-322q0 -88 41 -135t116 -47t116 47t41 135v322h40v-338q0 -46 -14.5 -84t-40.5 -65t-62 -42t-80 -15q-43 0 -79.5 15t-62.5 42t-40.5 65t-14.5 84v338z" />
    <glyph glyph-name="uniE821" unicode="&#xe821;" horiz-adv-x="665" 
d="M634 174q0 -39 -11.5 -72t-32 -56.5t-49.5 -36.5t-64 -13q-56 0 -95.5 32t-53.5 86q-14 -54 -52.5 -86t-92.5 -32q-34 0 -62 13t-48 36.5t-31 56.5t-11 72l-1 366h41v-369q0 -65 31 -100t86 -35t86 35t31 100v369h45v-369q0 -65 32.5 -100t89.5 -35t89.5 35t32.5 100v369
h41z" />
    <glyph glyph-name="uniE822" unicode="&#xe822;" horiz-adv-x="435" 
d="M30 540h40v-277q0 -42 11.5 -72.5t31.5 -50.5t47 -30t58 -10q18 0 43 5t48 22t39.5 50t16.5 88v276h40v-494q0 -46 -13.5 -86t-40 -69t-67 -45.5t-94.5 -16.5q-39 0 -67.5 7.5t-46.5 16.5q-22 11 -36 25v46q16 -15 39 -28q19 -10 47.5 -18.5t66.5 -8.5q77 0 124.5 44
t47.5 136v103q-20 -48 -61.5 -70.5t-94.5 -22.5q-45 0 -78.5 15.5t-56 42.5t-33.5 64t-11 80v278z" />
    <glyph glyph-name="uniE823" unicode="&#xe823;" horiz-adv-x="450" 
d="M80 278h290v378q-60 0 -113 -26t-92 -69.5t-62 -101t-23 -120.5v-61zM40 0v333q0 79 28 146t77 116t116 77t145 28h4v-700h-40v238h-290v-238h-40z" />
    <glyph glyph-name="uniE824" unicode="&#xe824;" horiz-adv-x="602" 
d="M301 323q-3 59 -14 104.5t-27 80t-35.5 59t-39.5 40.5q-47 38 -105 47v-654h-40v700h13q55 0 97.5 -21.5t73.5 -52t50 -63t27 -53.5q8 21 27 53.5t50 63t73.5 52t97.5 21.5h13v-700h-40v654q-55 -8 -101 -46q-19 -16 -38.5 -40t-36 -58.5t-28.5 -80.5t-17 -106z" />
    <glyph glyph-name="uniE825" unicode="&#xe825;" horiz-adv-x="450" 
d="M410 0h-40v382q0 66 -27.5 116.5t-70 85.5t-93.5 54t-99 22v-660h-40v700h25q50 0 96 -13.5t85 -36t70.5 -53t53.5 -65.5v168h40v-700z" />
    <glyph glyph-name="uniE826" unicode="&#xe826;" horiz-adv-x="450" 
d="M410 700v-333q0 -79 -28 -146t-77 -116t-116 -77t-145 -28h-4v700h40v-656q60 0 113 26t92 69.5t62 101t23 120.5v339h40z" />
    <glyph glyph-name="uniE827" unicode="&#xe827;" horiz-adv-x="602" 
d="M301 190q-8 -21 -27 -53.5t-50 -63t-73.5 -52t-97.5 -21.5h-13v700h40v-654q58 9 105 47q20 17 39.5 41t35.5 58.5t27 80t14 104.5q5 -60 17 -105.5t28.5 -80t36 -59t38.5 -40.5q46 -38 101 -46v654h40v-700h-13q-55 0 -97.5 21.5t-73.5 52t-50 63t-27 53.5z" />
    <glyph glyph-name="T.flatleft" horiz-adv-x="414" 
d="M10 660l10 40h374v-40h-167v-661h-40v661h-177z" />
    <glyph glyph-name="T.flatright" horiz-adv-x="414" 
d="M20 660v40h374l10 -40h-167v-661h-40v661h-177z" />
    </font>
</defs>
</svg>
