<?xml version="1.0" standalone="no"?>
<!DOCTYPE svg PUBLIC "-//W3C//DTD SVG 1.1//EN" "http://www.w3.org/Graphics/SVG/1.1/DTD/svg11.dtd" >
<svg xmlns="http://www.w3.org/2000/svg" xmlns:xlink="http://www.w3.org/1999/xlink" version="1.1">
<metadata>
Created by FontForge 20170731 at Sun Jul 31 02:34:35 2022
 By Aleksey,,,
</metadata>
<defs>
<font id="Powerr-Black" horiz-adv-x="230" >
  <font-face 
    font-family="Powerr Black"
    font-weight="900"
    font-stretch="normal"
    units-per-em="1000"
    panose-1="2 0 0 0 0 0 0 0 0 0"
    ascent="750"
    descent="-250"
    x-height="540"
    cap-height="700"
    bbox="-20 -170 895 750"
    underline-thickness="50"
    underline-position="-175"
    unicode-range="U+000D-E827"
  />
<missing-glyph horiz-adv-x="250" 
 />
    <glyph glyph-name=".notdef" horiz-adv-x="250" 
 />
    <glyph glyph-name=".null" horiz-adv-x="0" 
 />
    <glyph glyph-name=".null" horiz-adv-x="0" 
 />
    <glyph glyph-name="uni000D" unicode="&#xd;" horiz-adv-x="250" 
 />
    <glyph glyph-name="space" unicode=" " horiz-adv-x="130" 
 />
    <glyph glyph-name="exclam" unicode="!" 
d="M20 190h190v-190h-190v190zM20 701h190v-474h-190v474z" />
    <glyph glyph-name="quotedbl" unicode="&#x22;" horiz-adv-x="460" 
d="M20 700h190v-229h-190v229zM250 700h190v-229h-190v229z" />
    <glyph glyph-name="numbersign" unicode="#" horiz-adv-x="616" 
d="M353 240l83 230h-172l-83 -230h172zM20 200v40h118l83 230h-148v40h162l68 190h43l-68 -190h172l68 190h43l-68 -190h103v-40h-117l-83 -230h147v-40h-161l-72 -200h-43l72 200h-172l-72 -200h-43l72 200h-104z" />
    <glyph glyph-name="dollar" unicode="$" horiz-adv-x="433" 
d="M394 677v-172q-14 13 -31 24q-14 8 -34.5 15.5t-46.5 7.5q-32 0 -52.5 -13t-20.5 -35q0 -19 15.5 -33.5t38.5 -30.5t50.5 -34.5t50.5 -45t38.5 -63t15.5 -87.5q0 -49 -15.5 -88.5t-44 -67t-68.5 -43.5t-90 -19v-41h-40v41q-35 2 -62 8.5t-46 14.5q-21 9 -37 20v186
q19 -19 42 -33q20 -13 47 -23.5t59 -10.5q39 0 53 15t14 33q0 22 -15.5 39.5t-39 34.5t-50.5 35.5t-50.5 44t-39 59.5t-15.5 81t15.5 84.5t43.5 64.5t66.5 43t84.5 19v43h40v-42q29 -2 52 -7t39 -10q19 -6 33 -14z" />
    <glyph glyph-name="percent" unicode="%" horiz-adv-x="761" 
d="M483 700h43l-251 -700h-43zM20 528q0 36 13.5 67t37 54.5t55 37t67.5 13.5t67.5 -13.5t55 -37t37 -54.5t13.5 -67t-13.5 -67.5t-37 -55.5t-55 -37.5t-67.5 -13.5t-67.5 13.5t-55 37.5t-37 55.5t-13.5 67.5zM131 529q0 -30 18 -49.5t44 -19.5t44 19.5t18 49.5
q0 27 -18 46.5t-44 19.5t-44 -19.5t-18 -46.5zM395 174q0 36 13.5 67t37 54.5t55 37t67.5 13.5t67.5 -13.5t55 -37t37 -54.5t13.5 -67t-13.5 -67.5t-37 -55.5t-55 -37.5t-67.5 -13.5t-67.5 13.5t-55 37.5t-37 55.5t-13.5 67.5zM506 175q0 -30 18 -49.5t44 -19.5t44 19.5
t18 49.5q0 27 -18 46.5t-44 19.5t-44 -19.5t-18 -46.5z" />
    <glyph glyph-name="ampersand" unicode="&#x26;" horiz-adv-x="523" 
d="M493 468h-172q0 32 -14.5 52.5t-43.5 20.5q-26 0 -39.5 -17.5t-13.5 -40.5q0 -20 7 -31.5t18.5 -17t26.5 -6.5t30 -1h45v-118h-44q-19 0 -36 -3t-29.5 -11t-20 -22t-7.5 -37q0 -27 15.5 -47t48.5 -20q32 0 49.5 20.5t17.5 52.5h172q0 -51 -17 -94t-47.5 -75t-73.5 -51
t-95 -22v-49h-40v50q-45 4 -83 20.5t-66.5 43.5t-44.5 63.5t-16 80.5q0 24 5.5 47t19 44t36 39t56.5 31q-62 25 -84.5 64t-22.5 82q0 41 15 75t42 59t63.5 40.5t79.5 18.5v41h40v-40q50 -3 91 -22.5t70.5 -51.5t45.5 -75t16 -93z" />
    <glyph glyph-name="quotesingle" unicode="'" horiz-adv-x="225" 
d="M20 700h190v-229h-190v229z" />
    <glyph glyph-name="parenleft" unicode="(" horiz-adv-x="138" 
d="M81 0q-58 171 -60.5 346.5t60.5 353.5h37q-59 -171 -57 -346.5t57 -353.5h-37z" />
    <glyph glyph-name="parenright" unicode=")" horiz-adv-x="138" 
d="M20 0q55 178 57 353.5t-57 346.5h37q63 -178 60.5 -353.5t-60.5 -346.5h-37z" />
    <glyph glyph-name="asterisk" unicode="*" horiz-adv-x="440" 
d="M305 374l-85 136l-85 -136h-47l96 154l-144 32v41l160 -35v134h40v-135l160 36v-41l-144 -32l96 -154h-47z" />
    <glyph glyph-name="plus" unicode="+" horiz-adv-x="440" 
d="M240 170h-40v160h-160v40h160v160h40v-160h160v-40h-160v-160z" />
    <glyph glyph-name="comma" unicode="," 
d="M20 190h190v-190l-190 -89v279z" />
    <glyph glyph-name="hyphen" unicode="-" horiz-adv-x="440" 
d="M40 370h360v-40h-360v40z" />
    <glyph glyph-name="period" unicode="." 
d="M20 190h190v-190h-190v190z" />
    <glyph glyph-name="slash" unicode="/" horiz-adv-x="334" 
d="M271 700h43l-251 -700h-43z" />
    <glyph glyph-name="zero" unicode="0" horiz-adv-x="588" 
d="M20 353q0 81 19.5 147t55.5 112.5t86.5 72t113.5 25.5q62 0 112.5 -25t86 -71.5t55 -112.5t19.5 -148t-19.5 -148t-55 -112.5t-86 -71.5t-112.5 -25q-63 0 -113.5 25.5t-86.5 72t-55.5 112.5t-19.5 147zM210 353q0 -172 84 -172t84 172t-84 172t-84 -172z" />
    <glyph glyph-name="one" unicode="1" horiz-adv-x="330" 
d="M100 530h-100l100 170h190v-700h-190v530z" />
    <glyph glyph-name="two" unicode="2" horiz-adv-x="536" 
d="M33 468q0 52 14.5 96t42.5 76.5t70.5 51t97.5 18.5q45 0 87.5 -12.5t76 -38t54 -64t20.5 -89.5q0 -49 -19 -93.5t-51.5 -85.5t-75.5 -80t-91 -77h247v-170h-476l3 185q78 65 132.5 111.5t88 81t48.5 59.5t15 47q0 21 -13.5 39t-40.5 18q-29 0 -43.5 -20.5t-14.5 -52.5
h-172z" />
    <glyph glyph-name="three" unicode="3" horiz-adv-x="523" 
d="M30 468q0 53 17.5 97t49 76.5t76 50.5t97.5 18q47 0 87.5 -14t70.5 -39.5t47.5 -61t17.5 -79.5q0 -42 -21.5 -81.5t-81.5 -64.5q33 -13 55 -31.5t34.5 -39.5t18 -43.5t5.5 -45.5q0 -47 -18.5 -86t-50 -66.5t-74.5 -42.5t-93 -15q-54 0 -99.5 18t-78.5 50.5t-51 77
t-18 96.5h172q0 -32 17.5 -52.5t50.5 -20.5q32 0 47.5 20t15.5 47q0 29 -18 51t-53 22h-66v118h68q28 0 43.5 15t15.5 41q0 23 -13.5 40.5t-39.5 17.5q-29 0 -43.5 -20.5t-14.5 -52.5h-172z" />
    <glyph glyph-name="four" unicode="4" horiz-adv-x="555" 
d="M335 508l-125 -206h125v206zM335 0v130h-315v172l259 398h246v-700h-190z" />
    <glyph glyph-name="five" unicode="5" horiz-adv-x="523" 
d="M20 242h172q0 -32 17.5 -52.5t49.5 -20.5q33 0 48.5 21t15.5 49q0 40 -32 58.5t-101 18.5h-153l65 384h371v-160h-223l-14 -71h34q65 0 109 -20.5t72 -53.5t40 -75t12 -86q0 -62 -21.5 -106.5t-56.5 -73t-79.5 -41.5t-91.5 -13q-58 0 -101.5 18.5t-73 51t-44.5 76.5
t-15 96z" />
    <glyph glyph-name="six" unicode="6" horiz-adv-x="594" 
d="M394 262q0 41 -28 69t-69 28t-69 -28t-28 -69t28 -69t69 -28t69 28t28 69zM408 700l-79 -168q52 -6 96.5 -29t77.5 -59t52 -82.5t19 -99.5q0 -56 -22 -105.5t-59.5 -86.5t-88 -58.5t-107.5 -21.5t-107.5 21.5t-88 58.5t-59.5 86.5t-22 105.5q0 64 28 120l169 318h191z
" />
    <glyph glyph-name="seven" unicode="7" horiz-adv-x="518" 
d="M518 700l-261 -700h-192l189 528h-234v172h498z" />
    <glyph glyph-name="eight" unicode="8" horiz-adv-x="543" 
d="M200 238q0 -28 19 -47.5t48 -19.5t48 19.5t19 47.5t-19 47.5t-48 19.5t-48 -19.5t-19 -47.5zM215 474q0 -21 15 -36.5t37 -15.5t37 15.5t15 36.5t-15 36.5t-37 15.5t-37 -15.5t-15 -36.5zM25 514q0 41 19 76.5t52 62.5t77 42.5t94 15.5t94 -15.5t77 -42.5t52 -62.5
t19 -76.5q0 -45 -22.5 -83.5t-61.5 -65.5q46 -29 72.5 -72.5t26.5 -94.5q0 -44 -20 -82.5t-55 -67.5t-81.5 -45.5t-100.5 -16.5t-100.5 16.5t-81.5 45.5t-55 67.5t-20 82.5q0 51 26.5 94.5t72.5 72.5q-39 27 -61.5 65.5t-22.5 83.5z" />
    <glyph glyph-name="nine" unicode="9" horiz-adv-x="594" 
d="M200 438q0 -41 28 -69t69 -28t69 28t28 69t-28 69t-69 28t-69 -28t-28 -69zM186 0l79 168q-52 6 -96.5 29t-77.5 59t-52 83t-19 99q0 56 22 105.5t59.5 86.5t88 58.5t107.5 21.5t107.5 -21.5t88 -58.5t59.5 -86.5t22 -105.5q0 -64 -28 -120l-169 -318h-191z" />
    <glyph glyph-name="colon" unicode=":" 
d="M20 190h190v-190h-190v190zM20 540h190v-190h-190v190z" />
    <glyph glyph-name="semicolon" unicode=";" 
d="M20 190h190v-190l-190 -89v279zM20 540h190v-190h-190v190z" />
    <glyph glyph-name="less" unicode="&#x3c;" horiz-adv-x="420" 
d="M40 375l360 170v-45l-312 -147l312 -148v-45l-360 170v45z" />
    <glyph glyph-name="equal" unicode="=" horiz-adv-x="440" 
d="M40 428h360v-40h-360v40zM40 308h360v-40h-360v40z" />
    <glyph glyph-name="greater" unicode="&#x3e;" horiz-adv-x="420" 
d="M332 353l-312 147v45l360 -170v-45l-360 -170v45z" />
    <glyph glyph-name="question" unicode="?" horiz-adv-x="300" 
d="M20 227q0 68 15 108.5t32.5 66.5t32.5 44.5t15 41.5q0 20 -16.5 34.5t-51.5 14.5q-6 0 -11 -0.5t-9 -0.5q-4 -1 -7 -2v161q7 3 17 6q9 2 23.5 4t34.5 2q57 0 96.5 -16.5t63.5 -44.5t34.5 -64t10.5 -75q0 -51 -14 -84t-31 -61t-31 -58.5t-14 -76.5h-190zM20 190h190v-190
h-190v190z" />
    <glyph glyph-name="at" unicode="@" horiz-adv-x="740" 
d="M182 347q0 -37 12.5 -69.5t35 -56.5t52.5 -37.5t64 -13.5q35 0 65 13.5t52.5 37.5t35 56.5t12.5 69.5q0 36 -12.5 67.5t-35 55t-52.5 37t-65 13.5q-34 0 -64 -13.5t-52.5 -37t-35 -55t-12.5 -67.5zM511 153v106q-21 -57 -66.5 -93t-106.5 -36q-41 0 -77 17t-62.5 46
t-41.5 68.5t-15 84.5q0 44 15 83t41.5 68t62.5 46t77 17q61 0 106.5 -35.5t66.5 -92.5v111h40v-350h92q21 36 33.5 76t12.5 81q0 66 -25 124.5t-68 101.5t-101.5 68t-124.5 25t-124.5 -25t-101.5 -68t-68 -101.5t-25 -124.5q0 -68 26.5 -127.5t72 -103t106.5 -67.5t130 -21
v-31h-16q-73 0 -136.5 27.5t-111 75t-75 111t-27.5 136.5t27.5 136.5t75 111t111 75t136.5 27.5t136.5 -27.5t111 -75t75 -111t27.5 -136.5q0 -55 -17.5 -105t-46.5 -92h-145z" />
    <glyph glyph-name="A" unicode="A" horiz-adv-x="721" 
d="M425 278l-64 196l-65 -196h129zM239 106l-35 -106h-194l231 700h239l231 -700h-194l-35 106h-243z" />
    <glyph glyph-name="B" unicode="B" horiz-adv-x="550" 
d="M230 283v-108h56q26 0 42.5 14.5t16.5 38.5t-16 39.5t-43 15.5h-56zM230 425h44q23 0 37 14.5t14 37.5t-14 35.5t-37 12.5h-44v-100zM40 0v700h261q46 0 84.5 -13.5t66 -38t43 -59.5t15.5 -77q0 -49 -20.5 -88.5t-57.5 -65.5q46 -25 72 -68t26 -98q0 -43 -16.5 -78.5
t-45.5 -60.5t-70 -39t-90 -14h-268z" />
    <glyph glyph-name="C" unicode="C" horiz-adv-x="502" 
d="M20 353q0 74 27 139t74 113.5t110.5 76.5t136.5 28q29 0 49 -4t32 -9q14 -6 22 -13l21 -180q-9 7 -22 13q-11 5 -28.5 9t-40.5 4q-40 0 -73.5 -14t-57.5 -38t-37 -56t-13 -69t13 -69t37 -56t57.5 -38t73.5 -14q23 0 40.5 4t28.5 9q13 6 22 13l-21 -180q-8 -7 -22 -13
q-12 -5 -32 -9t-49 -4q-73 0 -136.5 28t-110.5 76.5t-74 113.5t-27 139z" />
    <glyph glyph-name="D" unicode="D" horiz-adv-x="600" 
d="M230 176q42 3 73 17.5t51.5 38t30.5 54t10 64.5q0 35 -10 65t-30.5 53.5t-51.5 38t-73 17.5v-348zM40 0v700h190q74 0 138 -27.5t111 -75t74 -111.5t27 -136t-27 -136t-74 -111.5t-111 -75t-138 -27.5h-190z" />
    <glyph glyph-name="E" unicode="E" horiz-adv-x="487" 
d="M40 0v700h387l40 -172h-237v-91h177v-172h-177v-93h237l-40 -172h-387z" />
    <glyph glyph-name="F" unicode="F" horiz-adv-x="487" 
d="M230 528v-91h177v-172h-177v-265h-190v700h387l40 -172h-237z" />
    <glyph glyph-name="G" unicode="G" horiz-adv-x="642" 
d="M20 353q0 74 28 139t77.5 113.5t117 76.5t145.5 28q59 0 102.5 -13.5t72.5 -30.5q35 -19 59 -44l-129 -144q-11 16 -28 29q-14 11 -37 19.5t-57 8.5q-39 0 -70 -14t-52.5 -39t-32.5 -58t-11 -71t11 -71t34.5 -58t59 -39t84.5 -14q9 0 18 0.5t17 1.5v181h190v-300
q-30 -16 -65 -29q-31 -11 -72 -20t-89 -9q-79 0 -147.5 28t-118.5 76.5t-78.5 113.5t-28.5 139z" />
    <glyph glyph-name="H" unicode="H" horiz-adv-x="630" 
d="M230 265v-265h-190v700h190v-263h170v263h190v-700h-190v265h-170z" />
    <glyph glyph-name="I" unicode="I" horiz-adv-x="270" 
d="M40 700h190v-700h-190v700z" />
    <glyph glyph-name="J" unicode="J" horiz-adv-x="376" 
d="M336 222q0 -223 -222 -223h-94v172h20q30 0 50.5 5.5t33 17.5t17.5 32.5t5 50.5v423h190v-478z" />
    <glyph glyph-name="K" unicode="K" horiz-adv-x="627" 
d="M400 0l-170 362v-362h-190v700h190v-313l160 313h217l-182 -327l192 -373h-217z" />
    <glyph glyph-name="L" unicode="L" horiz-adv-x="497" 
d="M40 0v700h190v-528h257l-40 -172h-407z" />
    <glyph glyph-name="M" unicode="M" horiz-adv-x="738" 
d="M369 77l-120 247l-39 -324h-195l84 700h155l115 -238l115 238h155l84 -700h-195l-39 324z" />
    <glyph glyph-name="N" unicode="N" horiz-adv-x="617" 
d="M577 700v-700h-94l-253 304v-304h-190v700h94l253 -298v298h190z" />
    <glyph glyph-name="O" unicode="O" horiz-adv-x="754" 
d="M20 353q0 74 28 139t76.5 113.5t113.5 76.5t139 28t139 -28t113.5 -76.5t76.5 -113.5t28 -139t-28 -139t-76.5 -113.5t-113.5 -76.5t-139 -28t-139 28t-113.5 76.5t-76.5 113.5t-28 139zM210 353q0 -36 13 -67t36 -54.5t53.5 -37t64.5 -13.5q35 0 65 13.5t53 37t36 54.5
t13 67t-13 67t-36 54.5t-53 37t-65 13.5q-34 0 -64.5 -13.5t-53.5 -37t-36 -54.5t-13 -67z" />
    <glyph glyph-name="P" unicode="P" horiz-adv-x="570" 
d="M230 365h54q37 0 59 23.5t22 58.5q0 36 -22.5 57t-58.5 21h-54v-160zM40 0v700h260q56 0 102 -18t79 -51.5t51 -80t18 -103.5t-18 -104t-51 -81t-79.5 -53t-102.5 -19h-69v-190h-190z" />
    <glyph glyph-name="Q" unicode="Q" horiz-adv-x="754" 
d="M210 353q0 -36 13 -67t36 -54.5t53.5 -37t64.5 -13.5q35 0 65 13.5t53 37t36 54.5t13 67t-13 67t-36 54.5t-53 37t-65 13.5q-34 0 -64.5 -13.5t-53.5 -37t-36 -54.5t-13 -67zM20 353q0 74 28 139t76.5 113.5t113.5 76.5t139 28t139 -28t113.5 -76.5t76.5 -113.5t28 -139
q0 -48 -12 -92t-33.5 -82.5t-52 -71t-68.5 -56.5l137 -190h-243l-97 135q-72 3 -135 32t-109.5 77t-73.5 112t-27 136z" />
    <glyph glyph-name="R" unicode="R" horiz-adv-x="577" 
d="M230 405h23q31 0 49 19.5t18 48.5t-18.5 45.5t-48.5 16.5h-23v-130zM350 0l-120 274v-274h-190v700h261q46 0 84.5 -14.5t66 -41t43 -64t15.5 -83.5q0 -62 -27.5 -109t-76.5 -73l161 -315h-217z" />
    <glyph glyph-name="S" unicode="S" horiz-adv-x="433" 
d="M394 677v-172q-14 13 -31 24q-14 8 -34.5 15.5t-46.5 7.5q-32 0 -52.5 -13t-20.5 -35q0 -19 15.5 -33.5t38.5 -30.5t50.5 -34.5t50.5 -45t38.5 -63t15.5 -87.5q0 -50 -16.5 -90.5t-47 -69t-74.5 -44t-100 -15.5q-40 0 -71 7t-52 15q-24 10 -42 22v186q19 -19 42 -33
q20 -13 47 -23.5t59 -10.5q39 0 53 15t14 33q0 22 -15.5 39.5t-39 34.5t-50.5 35.5t-50.5 44t-39 59.5t-15.5 81t16.5 86t47 67t73.5 43.5t97 15.5q32 0 58 -5t44 -10q22 -7 38 -16z" />
    <glyph glyph-name="T" unicode="T" horiz-adv-x="494" 
d="M10 528l30 172h414l30 -172h-142v-529h-190v529h-142z" />
    <glyph glyph-name="U" unicode="U" horiz-adv-x="645" 
d="M40 700h191v-403q0 -56 23.5 -86t68.5 -30t68.5 30t23.5 86v403h190v-435q0 -60 -20.5 -109.5t-58 -85t-89 -55t-114.5 -19.5t-114.5 19.5t-89 55t-58 85t-20.5 109.5z" />
    <glyph glyph-name="V" unicode="V" horiz-adv-x="641" 
d="M631 700l-191 -700h-239l-191 700h196l115 -443l114 443h196z" />
    <glyph glyph-name="W" unicode="W" horiz-adv-x="768" 
d="M384 226l-105 -226h-145l-134 700h200l60 -339l124 262l124 -262l60 339h200l-134 -700h-145z" />
    <glyph glyph-name="X" unicode="X" horiz-adv-x="615" 
d="M605 0h-211l-86 158l-87 -158h-211l192 350l-192 350h211l87 -158l86 158h211l-192 -350z" />
    <glyph glyph-name="Y" unicode="Y" horiz-adv-x="648" 
d="M638 700l-311 -700h-197l105 244l-225 456h211l110 -231l100 231h207z" />
    <glyph glyph-name="Z" unicode="Z" horiz-adv-x="558" 
d="M0 0l265 528h-235l30 172h498l-272 -528h242l-30 -172h-498z" />
    <glyph glyph-name="bracketleft" unicode="[" horiz-adv-x="176" 
d="M156 0h-116v700h116v-40h-76v-620h76v-40z" />
    <glyph glyph-name="backslash" unicode="\" horiz-adv-x="334" 
d="M271 0l-251 700h43l251 -700h-43z" />
    <glyph glyph-name="bracketright" unicode="]" horiz-adv-x="176" 
d="M20 0v40h76v620h-76v40h116v-700h-116z" />
    <glyph glyph-name="asciicircum" unicode="^" horiz-adv-x="265" 
d="M155 700l90 -200h-44l-68 152l-69 -152h-44l90 200h45z" />
    <glyph glyph-name="underscore" unicode="_" horiz-adv-x="537" 
d="M40 0h457v-40h-457v40z" />
    <glyph glyph-name="a" unicode="a" horiz-adv-x="515" 
d="M195 171q0 -26 17 -43.5t43 -17.5t43 17.5t17 43.5q0 25 -17 42t-43 17t-43 -17t-17 -42zM15 166q0 36 14 67.5t38.5 55.5t58.5 37.5t73 13.5q37 0 66 -11.5t50 -31.5v5q0 49 -29.5 73.5t-94.5 24.5q-31 0 -55.5 -4.5t-42.5 -10.5q-20 -7 -36 -15v141q21 11 50 20
q24 7 58.5 13t79.5 6q126 0 188 -57t62 -168v-325h-180v39q-24 -23 -55.5 -36t-67.5 -13q-37 0 -69 13.5t-56 37.5t-38 56t-14 69z" />
    <glyph glyph-name="b" unicode="b" horiz-adv-x="605" 
d="M205 271q0 -48 30 -79.5t75 -31.5t75 31.5t30 79.5q0 23 -8 43t-22.5 34.5t-33.5 23t-41 8.5t-41 -8.5t-33.5 -23t-22.5 -34.5t-8 -43zM210 506q27 21 60.5 32.5t72.5 11.5q54 0 99.5 -22t78.5 -60t51 -88.5t18 -108.5t-22 -109.5t-60 -89.5t-89 -60t-109 -22t-109 22
t-89 60t-60 89.5t-22 109.5v429h180v-194z" />
    <glyph glyph-name="c" unicode="c" horiz-adv-x="410" 
d="M15 271q0 58 22 108.5t59.5 88.5t87.5 60t106 22q26 0 44 -4t29 -9q13 -6 22 -13v-176q-6 9 -17 16q-8 6 -22.5 11t-34.5 5q-51 0 -81 -31.5t-30 -77.5q0 -48 31 -79.5t85 -31.5q19 0 32 3.5t21 8.5q10 5 16 11v-168q-9 -7 -22 -12q-11 -5 -28.5 -9t-43.5 -4
q-57 0 -107 22t-87.5 60t-59.5 89.5t-22 109.5z" />
    <glyph glyph-name="d" unicode="d" horiz-adv-x="604" 
d="M190 271q0 -23 8 -43.5t21.5 -35.5t32.5 -23.5t40 -8.5t40 8.5t32.5 23.5t21.5 35.5t8 43.5t-8 42.5t-21.5 34.5t-32.5 23.5t-40 8.5t-40 -8.5t-32.5 -23.5t-21.5 -34.5t-8 -42.5zM394 0v46q-26 -26 -60 -41t-77 -15q-53 0 -97.5 22t-76.5 60.5t-50 89.5t-18 109
q0 57 18 108t50 89t76.5 60t97.5 22q43 0 77 -15t60 -41v206h180v-700h-180z" />
    <glyph glyph-name="e" unicode="e" horiz-adv-x="540" 
d="M363 358q-8 9 -18 17q-10 6 -23.5 11t-31.5 5q-25 0 -44 -10t-31 -27t-18 -38.5t-6 -44.5zM15 268q0 58 21.5 109.5t58.5 90t87.5 61t107.5 22.5q54 0 100 -19.5t79 -50t52 -68.5t19 -75l-308 -157q34 -26 86 -26q38 0 70.5 12.5t56.5 26.5q28 17 51 39v-171
q-19 -20 -47 -36q-23 -14 -57 -25.5t-80 -11.5q-58 0 -111.5 21t-94.5 58t-66 88t-25 112z" />
    <glyph glyph-name="f" unicode="f" horiz-adv-x="321" 
d="M305 391h-71v-391h-180v391h-39v150h39v32q0 32 11.5 56t32 40t48 23.5t60.5 7.5q23 0 41.5 -3t31.5 -7q15 -4 27 -10v-112q-3 2 -7 4q-10 4 -23 4q-20 0 -29.5 -10t-11.5 -25h70v-150z" />
    <glyph glyph-name="g" unicode="g" horiz-adv-x="580" 
d="M196 304q0 -35 24.5 -59.5t62.5 -24.5t62.5 24.5t24.5 59.5q0 36 -24.5 61t-62.5 25t-62.5 -25t-24.5 -61zM550 93q0 -56 -18 -104.5t-55.5 -83.5t-93.5 -55t-133 -20q-51 0 -87.5 7.5t-60.5 16.5q-28 11 -47 25v161q20 -15 47 -27q23 -11 56.5 -19.5t76.5 -8.5
q71 0 103 28t32 88v12q-24 -25 -57 -39t-75 -14q-49 0 -90 19.5t-70.5 52.5t-46 77.5t-16.5 94.5q0 51 16.5 96t46 78t70.5 52.5t90 19.5q42 0 75 -14t57 -39v43h180v-447z" />
    <glyph glyph-name="h" unicode="h" horiz-adv-x="569" 
d="M210 700v-221q27 33 65 52t85 19q43 0 76 -16t56 -43.5t35 -65t12 -79.5v-346h-180v293q0 42 -21.5 64.5t-51.5 22.5q-32 0 -54 -23.5t-22 -61.5v-295h-180v700h180z" />
    <glyph glyph-name="i" unicode="i" 
d="M25 540h180v-540h-180v540zM25 700h180v-117h-180v117z" />
    <glyph glyph-name="j" unicode="j" horiz-adv-x="240" 
d="M30 700h180v-117h-180v117zM210 0q0 -161 -173 -161l-57 162q27 0 38.5 10t11.5 34v495h180v-540z" />
    <glyph glyph-name="k" unicode="k" horiz-adv-x="540" 
d="M336 0l-126 269v-269h-180v700h180v-366l119 206h204l-152 -237l159 -303h-204z" />
    <glyph glyph-name="l" unicode="l" horiz-adv-x="240" 
d="M30 700h180v-700h-180v700z" />
    <glyph glyph-name="m" unicode="m" horiz-adv-x="838" 
d="M808 0h-180v308q0 35 -17 53.5t-42 18.5q-26 0 -43 -19.5t-17 -50.5v-310h-180v308q0 35 -17 53.5t-42 18.5q-26 0 -43 -19.5t-17 -50.5v-310h-180v540h180v-61q25 33 60 52t79 19q50 0 85 -24t54 -65q25 41 64.5 65t90.5 24q39 0 70 -15t52 -40.5t32 -60t11 -73.5v-361z
" />
    <glyph glyph-name="n" unicode="n" horiz-adv-x="569" 
d="M210 540v-61q27 33 65 52t85 19q43 0 76 -16t56 -43.5t35 -64.5t12 -79v-347h-180v294q0 42 -21.5 64t-51.5 22q-32 0 -54 -23.5t-22 -61.5v-295h-180v540h180z" />
    <glyph glyph-name="o" unicode="o" horiz-adv-x="590" 
d="M15 271q0 58 22 108.5t60 88.5t89 60t109 22t109 -22t89 -60t60 -88.5t22 -108.5t-22 -109.5t-60 -89.5t-89 -60t-109 -22t-109 22t-89 60t-60 89.5t-22 109.5zM190 271q0 -48 30 -79.5t75 -31.5t75 31.5t30 79.5q0 23 -8 43t-22.5 34.5t-33.5 23t-41 8.5t-41 -8.5
t-33.5 -23t-22.5 -34.5t-8 -43z" />
    <glyph glyph-name="p" unicode="p" horiz-adv-x="604" 
d="M414 269q0 23 -8 43.5t-21.5 35.5t-32.5 23.5t-40 8.5t-40 -8.5t-32.5 -23.5t-21.5 -35.5t-8 -43.5q0 -22 8 -42t21.5 -35t32.5 -23.5t40 -8.5t40 8.5t32.5 23.5t21.5 35t8 42zM210 540v-46q26 26 60 41t77 15q53 0 97.5 -22t76.5 -60.5t50 -89.5t18 -109q0 -57 -18 -108
t-50 -89t-76.5 -60t-97.5 -22q-43 0 -77 15t-60 41v-206h-180v700h180z" />
    <glyph glyph-name="q" unicode="q" horiz-adv-x="604" 
d="M190 269q0 -22 8 -42t21.5 -35t32.5 -23.5t40 -8.5t40 8.5t32.5 23.5t21.5 35t8 42q0 23 -8 43.5t-21.5 35.5t-32.5 23.5t-40 8.5t-40 -8.5t-32.5 -23.5t-21.5 -35.5t-8 -43.5zM394 540h180v-700h-180v206q-26 -26 -60 -41t-77 -15q-53 0 -97.5 22t-76.5 60t-50 89
t-18 108q0 58 18 109t50 89.5t76.5 60.5t97.5 22q43 0 77 -15t60 -41v46z" />
    <glyph glyph-name="r" unicode="r" horiz-adv-x="345" 
d="M210 540v-50q26 30 57.5 45t62.5 15v-170q-62 0 -91 -27t-29 -84v-269h-180v540h180z" />
    <glyph glyph-name="s" unicode="s" horiz-adv-x="405" 
d="M361 507v-142q-13 10 -30 19q-15 7 -36.5 12.5t-49.5 5.5q-35 0 -45.5 -8.5t-10.5 -17.5q0 -13 15.5 -23t38 -20.5t49.5 -23.5t49.5 -32.5t38 -47.5t15.5 -69q0 -78 -56.5 -123.5t-154.5 -45.5q-40 0 -69.5 7t-49.5 15q-24 10 -40 22v146q19 -13 41 -24q19 -9 44 -16.5
t52 -7.5q8 0 17.5 1t17.5 4.5t14 9.5t6 16q0 16 -15.5 27t-38.5 21t-49.5 22t-49.5 30.5t-38.5 45t-15.5 66.5q0 38 15 70t42 54.5t65 35t84 12.5q35 0 62 -6t46 -14q21 -10 37 -21z" />
    <glyph glyph-name="t" unicode="t" horiz-adv-x="321" 
d="M295 391h-56v-161q0 -21 3 -34t10.5 -20.5t20.5 -10.5t33 -3v-162h-84q-78 0 -120.5 39t-42.5 117v235h-44v150h44v81l180 49v-130h56v-150z" />
    <glyph glyph-name="u" unicode="u" horiz-adv-x="569" 
d="M359 0v61q-27 -33 -65 -52t-85 -19q-43 0 -76 16t-56 43.5t-35 64.5t-12 79v347h180v-294q0 -42 21.5 -64t51.5 -22q32 0 54 23.5t22 61.5v295h180v-540h-180z" />
    <glyph glyph-name="v" unicode="v" horiz-adv-x="562" 
d="M385 0h-208l-177 540h185l96 -293l96 293h185z" />
    <glyph glyph-name="w" unicode="w" horiz-adv-x="797" 
d="M465 0l-66 244l-67 -244h-175l-147 540h185l60 -256l70 256h147l70 -256l60 256h185l-147 -540h-175z" />
    <glyph glyph-name="x" unicode="x" horiz-adv-x="529" 
d="M210 0h-201l162 270l-162 270h201l52 -102l52 102h201l-162 -270l162 -270h-201l-52 102z" />
    <glyph glyph-name="y" unicode="y" horiz-adv-x="582" 
d="M328 -160h-181l66 190l-203 510h188l105 -253l88 253h181z" />
    <glyph glyph-name="z" unicode="z" horiz-adv-x="470" 
d="M466 0h-457l188 370h-167v170h455l-188 -370h169v-170z" />
    <glyph glyph-name="braceleft" unicode="{" horiz-adv-x="196" 
d="M60 284q0 24 -9.5 43.5t-30.5 33.5q18 14 29 30.5t11 34.5v230q0 44 44 44h72v-40h-50q-26 0 -26 -26v-208q0 -18 -8 -35t-24 -30q16 -11 24 -33.5t8 -43.5v-218q0 -26 26 -26h50v-40h-72q-44 0 -44 44v240z" />
    <glyph glyph-name="bar" unicode="|" horiz-adv-x="120" 
d="M40 700h40v-700h-40v700z" />
    <glyph glyph-name="braceright" unicode="}" horiz-adv-x="196" 
d="M136 44q0 -44 -44 -44h-72v40h50q26 0 26 26v218q0 21 8 43.5t24 33.5q-16 13 -24 30t-8 35v208q0 26 -26 26h-50v40h72q44 0 44 -44v-230q0 -18 11 -34.5t29 -30.5q-21 -14 -30.5 -33.5t-9.5 -43.5v-240z" />
    <glyph glyph-name="tilde" unicode="&#x2dc;" horiz-adv-x="400" 
d="M20 370q26 17 48 24t42 7q26 0 47.5 -9t43 -20t44 -20t49.5 -9q19 0 40 6.5t46 20.5v-40q-27 -14 -49.5 -20.5t-41.5 -6.5q-27 0 -49.5 9t-43.5 20t-42 20t-46 9q-19 0 -40.5 -7t-47.5 -24v40z" />
    <glyph glyph-name="quoteleft" unicode="&#x2018;" 
d="M210 421h-190v190l190 89v-279z" />
    <glyph glyph-name="quoteright" unicode="&#x2019;" 
d="M20 700h190v-190l-190 -89v279z" />
    <glyph glyph-name="quotedblleft" unicode="&#x201c;" horiz-adv-x="460" 
d="M210 421h-190v190l190 89v-279zM440 421h-190v190l190 89v-279z" />
    <glyph glyph-name="quotedblright" unicode="&#x201d;" horiz-adv-x="460" 
d="M250 700h190v-190l-190 -89v279zM20 700h190v-190l-190 -89v279z" />
    <glyph glyph-name="Euro" unicode="&#x20ac;" horiz-adv-x="539" 
d="M20 375v40h42q11 63 43 117t79.5 93.5t107.5 62t127 22.5q24 0 44.5 -2.5t34.5 -5.5q17 -4 31 -8v-190q-9 7 -22 13q-11 5 -28.5 9t-40.5 4q-63 0 -108 -32t-63 -83h211v-40h-220q-1 -5 -1 -11v-11q0 -7 0.5 -13.5t1.5 -13.5h219v-40h-209q19 -49 63 -79.5t106 -30.5
q23 0 40.5 4t28.5 9q13 6 22 13v-188q-14 -5 -31 -9q-15 -3 -35.5 -6t-46.5 -3q-66 0 -124.5 22t-105.5 61t-79 92t-44 115h-43v40h38q-1 7 -1 13.5v13.5v11t1 11h-38z" />
    <glyph glyph-name="uniE800" unicode="&#xe800;" horiz-adv-x="502" 
d="M20 353q0 74 28.5 139t77.5 113.5t115 76.5t141 28q24 0 44.5 -2.5t34.5 -5.5q17 -4 31 -8v-190q-9 7 -22 13q-11 5 -28.5 9t-40.5 4q-40 0 -73.5 -14t-57.5 -38t-37 -56t-13 -69t13 -69t37 -56t57.5 -38t73.5 -14q23 0 40.5 4t28.5 9q13 6 22 13v-188q-14 -5 -31 -9
q-15 -3 -35.5 -6t-46.5 -3q-74 0 -139.5 28t-114 76.5t-77 113.5t-28.5 139z" />
    <glyph glyph-name="uniE801" unicode="&#xe801;" horiz-adv-x="467" 
d="M40 0v700h407v-172h-217v-91h177v-172h-177v-93h217v-172h-407z" />
    <glyph glyph-name="uniE802" unicode="&#xe802;" horiz-adv-x="467" 
d="M230 265v-265h-190v700h407v-172h-217v-91h177v-172h-177z" />
    <glyph glyph-name="uniE803" unicode="&#xe803;" horiz-adv-x="642" 
d="M20 353q0 74 28 139t77.5 113.5t117 76.5t145.5 28q59 0 102.5 -13.5t72.5 -30.5q35 -19 59 -44l-129 -144q-11 16 -28 29q-14 11 -37 19.5t-57 8.5q-39 0 -70 -14t-52.5 -39t-32.5 -58t-11 -71t11 -71t34.5 -58t59 -39t84.5 -14q9 0 18 0.5t17 1.5v82h-117l43 172h264
v-373q-30 -16 -65 -29q-31 -11 -72 -20t-89 -9q-79 0 -147.5 28t-118.5 76.5t-78.5 113.5t-28.5 139z" />
    <glyph glyph-name="uniE804" unicode="&#xe804;" horiz-adv-x="497" 
d="M40 0v700h190v-528h247v-172h-437z" />
    <glyph glyph-name="uniE805" unicode="&#xe805;" horiz-adv-x="728" 
d="M364 117l-134 209l1 -326h-191v700h155l169 -238l169 238h155v-700h-191l1 326z" />
    <glyph glyph-name="uniE806" unicode="&#xe806;" horiz-adv-x="689" 
d="M619 700v-700h-190l-199 350v-350h-190v700h190l199 -343v343h190z" />
    <glyph glyph-name="uniE807" unicode="&#xe807;" horiz-adv-x="494" 
d="M20 528v172h454v-172h-132v-529h-190v529h-132z" />
    <glyph glyph-name="uniE809" unicode="&#xe809;" horiz-adv-x="641" 
d="M227 0v288l-217 412h196l115 -234l114 234h196l-214 -416v-284h-190z" />
    <glyph glyph-name="uniE80A" unicode="&#xe80a;" horiz-adv-x="558" 
d="M0 0l265 528h-225v172h518l-272 -528h222v-172h-508z" />
    <glyph glyph-name="uniE80B" unicode="&#xe80b;" horiz-adv-x="604" 
d="M414 271q0 23 -8 42.5t-21.5 34.5t-32.5 23.5t-40 8.5t-40 -8.5t-32.5 -23.5t-21.5 -34.5t-8 -42.5t8 -43.5t21.5 -35.5t32.5 -23.5t40 -8.5t40 8.5t32.5 23.5t21.5 35.5t8 43.5zM210 0h-180v700h180v-206q26 26 60 41t77 15q53 0 97.5 -22t76.5 -60t50 -89t18 -108
q0 -58 -18 -109t-50 -89.5t-76.5 -60.5t-97.5 -22q-43 0 -77 15t-60 41v-46z" />
    <glyph glyph-name="uniE80C" unicode="&#xe80c;" horiz-adv-x="540" 
d="M361 333q-6 16 -16 29q-10 11 -25.5 20t-39.5 9q-29 0 -52.5 -15.5t-35.5 -42.5h169zM15 268q0 58 21.5 109.5t58.5 90t87 61t107 22.5q53 0 97 -19.5t76 -54t50 -81.5t18 -103v-59h-342q14 -40 49 -59.5t73 -19.5q25 1 45 7.5t34 14.5q16 10 29 22l102 -111
q-26 -28 -60 -49q-29 -19 -69 -34.5t-90 -15.5q-54 0 -105 21t-91.5 58t-65 88t-24.5 112z" />
    <glyph glyph-name="uniE80D" unicode="&#xe80d;" horiz-adv-x="502" 
d="M20 353q0 74 28.5 139t77.5 113.5t115 76.5t141 28q24 0 44.5 -2.5t34.5 -5.5q17 -4 31 -8v-190q-9 7 -22 13q-11 5 -28.5 9t-40.5 4q-57 0 -98.5 -26t-63.5 -68h218v-172h-214q22 -40 63 -64t95 -24q23 0 40.5 4t28.5 9q13 6 22 13v-188q-14 -5 -31 -9q-15 -3 -35.5 -6
t-46.5 -3q-74 0 -139.5 28t-114 76.5t-77 113.5t-28.5 139z" />
    <glyph glyph-name="uniE80E" unicode="&#xe80e;" horiz-adv-x="321" 
d="M305 391h-71v-424q0 -32 -11.5 -56t-32 -40t-48 -23.5t-60.5 -7.5q-23 0 -41 3t-32 7q-15 4 -27 10v112q3 -2 7 -4q10 -4 23 -4q25 0 33.5 14.5t8.5 34.5v378h-39v150h39v32q0 32 11.5 56t32 40t48 23.5t60.5 7.5q23 0 41.5 -3t31.5 -7q15 -4 27 -10v-112q-3 2 -7 4
q-10 4 -23 4q-20 0 -29.5 -10t-11.5 -25h70v-150z" />
    <glyph glyph-name="uniE80F" unicode="&#xe80f;" horiz-adv-x="540" 
d="M413 -160l-203 429v-269h-180v700h180v-366l119 206h204l-152 -237l236 -463h-204z" />
    <glyph glyph-name="uniE810" unicode="&#xe810;" horiz-adv-x="485" 
d="M366 507v-142q-13 10 -30 19q-14 7 -35 12.5t-47 5.5q-37 0 -48.5 -11.5t-11.5 -24.5q0 -22 20.5 -36.5t51 -28.5t66.5 -31t66.5 -43t51 -65t20.5 -96q0 -51 -17.5 -92.5t-49.5 -71t-78.5 -46t-103.5 -16.5q-48 0 -84 10t-59 22q-28 14 -48 32v146q20 -18 45 -33
q21 -12 49.5 -22.5t63.5 -9.5q53 0 78.5 25t25.5 57q0 30 -20.5 50.5t-51.5 37t-66.5 33t-66.5 38.5t-51.5 53.5t-20.5 78.5q0 39 15 73.5t43 60.5t67 41t87 15q33 0 59 -6t44 -14q20 -10 36 -21z" />
    <glyph glyph-name="uniE811" unicode="&#xe811;" horiz-adv-x="604" 
d="M190 271q0 -23 8 -43.5t21.5 -35.5t32.5 -23.5t40 -8.5t40 8.5t32.5 23.5t21.5 35.5t8 43.5t-8 42.5t-21.5 34.5t-32.5 23.5t-40 8.5t-40 -8.5t-32.5 -23.5t-21.5 -34.5t-8 -42.5zM394 0v46q-26 -26 -60 -41t-77 -15q-53 0 -97.5 22t-76.5 60.5t-50 89.5t-18 109
q0 57 18 108t50 89t76.5 60t97.5 22q43 0 77 -15t60 -41v46h180v-540h-180z" />
    <glyph glyph-name="uniE812" unicode="&#xe812;" horiz-adv-x="310" 
d="M295 391h-56v-391h-180v391h-44v150h44v81l180 49v-130h56v-150z" />
    <glyph glyph-name="uniE813" unicode="&#xe813;" horiz-adv-x="470" 
d="M674 -160q-90 2 -151 15t-105.5 30.5t-79 37.5t-72.5 37.5t-86.5 28.5t-120.5 11h-50l188 370h-167v170h455l-204 -400q42 -18 80.5 -40.5t83 -42.5t99.5 -33.5t130 -13.5v-170z" />
    <glyph glyph-name="uniE814" unicode="&#xe814;" horiz-adv-x="407" 
d="M40 0v700h190v-528h167v-172h-357z" />
    <glyph glyph-name="uniE815" unicode="&#xe815;" horiz-adv-x="645" 
d="M231 313h184v90q0 56 -23.5 86t-68.5 30t-68.5 -30t-23.5 -86v-90zM41 435q0 60 20.5 109.5t58 85t89 55t114.5 19.5q61 0 113 -19t89.5 -54.5t58.5 -85t21 -110.5v-435h-190v141h-184v-141h-191z" />
    <glyph glyph-name="uniE816" unicode="&#xe816;" horiz-adv-x="935" 
d="M895 0h-191v436q0 40 -17.5 61.5t-49.5 21.5t-49.5 -21.5t-17.5 -61.5v-436h-205v436q0 40 -17.5 61.5t-49.5 21.5t-49.5 -21.5t-17.5 -61.5v-436h-191l1 468q0 53 16.5 96t46.5 74.5t72 48.5t92 17q69 0 120 -31t80 -85q28 54 79 85t120 31q50 0 92 -17t72 -48.5
t46.5 -74.5t16.5 -96z" />
    <glyph glyph-name="uniE817" unicode="&#xe817;" horiz-adv-x="645" 
d="M41 435q0 60 20.5 109.5t58 85t89 55t114.5 19.5t114.5 -19.5t89 -55t58 -85t20.5 -109.5v-435h-190v403q0 56 -23.5 86t-68.5 30t-68.5 -30t-23.5 -86v-403h-191z" />
    <glyph glyph-name="uniE818" unicode="&#xe818;" horiz-adv-x="935" 
d="M894 226q0 -52 -16.5 -95.5t-46.5 -75t-72 -48.5t-92 -17q-69 0 -120 31t-79 85q-29 -54 -80 -85t-120 -31q-50 0 -92 17t-72 48.5t-46.5 75t-16.5 95.5l-1 468h191v-436q0 -40 17.5 -61.5t49.5 -21.5t49.5 21.5t17.5 61.5v436h205v-436q0 -40 17.5 -61.5t49.5 -21.5
t49.5 21.5t17.5 61.5v436h191z" />
    <glyph glyph-name="uniE819" unicode="&#xe819;" horiz-adv-x="605" 
d="M400 269q0 48 -30 79.5t-75 31.5t-75 -31.5t-30 -79.5q0 -23 8 -43t22.5 -34.5t33.5 -23t41 -8.5t41 8.5t33.5 23t22.5 34.5t8 43zM395 34q-27 -21 -60.5 -32.5t-72.5 -11.5q-54 0 -99.5 22t-78.5 60t-51 88.5t-18 108.5q0 59 22 110t60 89t89 60t109 22t109 -22t89 -60
t60 -89t22 -110v-269h-180v34z" />
    <glyph glyph-name="uniE81A" unicode="&#xe81a;" horiz-adv-x="605" 
d="M400 271q0 23 -8 43t-22.5 34.5t-33.5 23t-41 8.5t-41 -8.5t-33.5 -23t-22.5 -34.5t-8 -43q0 -48 30 -79.5t75 -31.5t75 31.5t30 79.5zM575 271q0 -58 -22 -109.5t-60 -89.5t-89 -60t-109 -22t-109 22t-89 60t-60 89.5t-22 109.5t18 108.5t51 88.5t78.5 60t99.5 22
q39 0 72.5 -11.5t60.5 -32.5v194h180v-429z" />
    <glyph glyph-name="uniE81B" unicode="&#xe81b;" horiz-adv-x="580" 
d="M370 299q0 35 -25 58t-62 23t-62 -23t-25 -58q0 -33 25 -56t62 -23t62 23t25 56zM550 93q0 -56 -18 -104.5t-55.5 -83.5t-93.5 -55t-133 -20q-51 0 -87.5 7.5t-60.5 16.5q-28 11 -47 25v161q20 -15 47 -27q23 -11 56.5 -19.5t76.5 -8.5q71 0 103 28t32 88v1
q-51 -42 -127 -42q-51 0 -93 19.5t-72 52.5t-46.5 77.5t-16.5 94.5q0 51 20.5 96t56 78t83 52.5t101.5 19.5q56 0 105.5 -21t87 -56.5t59 -82.5t22.5 -100v-197z" />
    <glyph glyph-name="uniE81C" unicode="&#xe81c;" horiz-adv-x="895" 
d="M855 0h-181v292q0 37 -17.5 57t-49.5 20t-49.5 -20t-17.5 -57v-292h-185v292q0 37 -17.5 57t-49.5 20t-49.5 -20t-17.5 -57v-292h-181l1 316q0 51 16 93t44.5 72t68.5 46.5t88 16.5q65 0 114 -29t76 -80q26 51 75 80t114 29q48 0 88 -16.5t68.5 -46.5t44.5 -72t16 -93z
" />
    <glyph glyph-name="uniE81D" unicode="&#xe81d;" horiz-adv-x="615" 
d="M41 297q0 54 19.5 98.5t55 77t84.5 50t108 17.5t108.5 -17.5t84.5 -50t54.5 -77t19.5 -98.5v-301h-180v277q0 45 -22.5 68.5t-64.5 23.5t-64.5 -23.5t-22.5 -68.5v-277h-181z" />
    <glyph glyph-name="uniE81E" unicode="&#xe81e;" horiz-adv-x="605" 
d="M205 269q0 -23 8 -43t22.5 -34.5t33.5 -23t41 -8.5t41 8.5t33.5 23t22.5 34.5t8 43q0 48 -30 79.5t-75 31.5t-75 -31.5t-30 -79.5zM30 269q0 59 22 110t60 89t89 60t109 22t109 -22t89 -60t60 -89t22 -110q0 -58 -18 -108.5t-51 -88.5t-78.5 -60t-99.5 -22
q-39 0 -72.5 11.5t-60.5 32.5v-194h-180v429z" />
    <glyph glyph-name="uniE81F" unicode="&#xe81f;" horiz-adv-x="605" 
d="M400 269q0 48 -30 79.5t-75 31.5t-75 -31.5t-30 -79.5q0 -23 8 -43t22.5 -34.5t33.5 -23t41 -8.5t41 8.5t33.5 23t22.5 34.5t8 43zM395 34q-27 -21 -60.5 -32.5t-72.5 -11.5q-54 0 -99.5 22t-78.5 60t-51 88.5t-18 108.5q0 59 22 110t60 89t89 60t109 22t109 -22t89 -60
t60 -89t22 -110v-429h-180v194z" />
    <glyph glyph-name="uniE820" unicode="&#xe820;" horiz-adv-x="615" 
d="M40 540h181v-277q0 -45 22.5 -68.5t64.5 -23.5t64.5 23.5t22.5 68.5v277h180v-301q0 -54 -19.5 -98.5t-54.5 -77t-84.5 -50t-108.5 -17.5t-108 17.5t-84.5 50t-55 77t-19.5 98.5z" />
    <glyph glyph-name="uniE821" unicode="&#xe821;" horiz-adv-x="895" 
d="M854 224q0 -51 -16 -93t-44.5 -72t-68.5 -46.5t-88 -16.5q-65 0 -114 29t-75 80q-27 -51 -76 -80t-114 -29q-48 0 -88 16.5t-68.5 46.5t-44.5 72t-16 93l-1 316h181v-292q0 -37 17.5 -57t49.5 -20t49.5 20t17.5 57v292h185v-292q0 -37 17.5 -57t49.5 -20t49.5 20t17.5 57
v292h181z" />
    <glyph glyph-name="uniE822" unicode="&#xe822;" horiz-adv-x="575" 
d="M30 540h180v-240q0 -34 21 -52t50 -18q32 0 53 20.5t21 54.5v236h180v-448q0 -56 -18 -104.5t-55.5 -83.5t-93.5 -55t-133 -20q-51 0 -87.5 7.5t-60.5 16.5q-28 11 -47 25v161q20 -15 47 -27q23 -11 56.5 -19.5t76.5 -8.5q71 0 103 28t32 88v32q-28 -32 -67 -52.5
t-88 -20.5q-40 0 -71.5 14t-53.5 38t-33.5 56t-11.5 69v303z" />
    <glyph glyph-name="uniE823" unicode="&#xe823;" horiz-adv-x="600" 
d="M370 368v148q-54 -17 -86.5 -55.5t-45.5 -92.5h132zM40 0v333q0 79 33.5 146t92.5 116t140 77t175 28h79v-700h-190v196h-140v-196h-190z" />
    <glyph glyph-name="uniE824" unicode="&#xe824;" horiz-adv-x="752" 
d="M376 233q-17 55 -42 97.5t-48 71.5q-27 34 -56 60v-462h-190v700h60q66 0 113.5 -19t79.5 -45t51.5 -54.5t31.5 -46.5q12 18 31.5 46.5t52 54.5t79.5 45t113 19h60v-700h-190v462q-29 -26 -56 -60q-23 -29 -48 -71.5t-42 -97.5z" />
    <glyph glyph-name="uniE825" unicode="&#xe825;" horiz-adv-x="617" 
d="M560 0h-190v283q0 90 -37 140.5t-103 62.5v-486h-190v700h120q63 0 115.5 -24.5t94.5 -65.5v90h190v-700z" />
    <glyph glyph-name="uniE826" unicode="&#xe826;" horiz-adv-x="600" 
d="M560 700v-333q0 -79 -33.5 -146t-92.5 -116t-139.5 -77t-175.5 -28h-79v700h190v-516q72 22 106 82t34 141v293h190z" />
    <glyph glyph-name="uniE827" unicode="&#xe827;" horiz-adv-x="768" 
d="M376 165q-12 -18 -31.5 -46.5t-51.5 -54.5t-79.5 -45t-113.5 -19h-60v700h190v-462q29 26 56 60q23 29 48 72t42 97q17 -54 42 -97t48 -72q27 -34 56 -60v462h190v-700h-60q-66 0 -113 19t-79.5 45t-52 54.5t-31.5 46.5z" />
    <glyph glyph-name="T.flatleft" horiz-adv-x="494" 
d="M10 528l30 172h434v-172h-132v-529h-190v529h-142z" />
    <glyph glyph-name="T.flatright" horiz-adv-x="494" 
d="M20 528v172h434l30 -172h-142v-529h-190v529h-132z" />
    </font>
</defs>
</svg>
